<svg width="252" height="347" viewBox="0 0 252 347" fill="none" xmlns="http://www.w3.org/2000/svg" xmlns:xlink="http://www.w3.org/1999/xlink">
<mask id="path-1-inside-1_4098_10098" fill="white">
<path d="M0 0H240C246.627 0 252 5.37258 252 12V335C252 341.627 246.627 347 240 347H0V0Z"/>
</mask>
<path d="M0 0H240C246.627 0 252 5.37258 252 12V335C252 341.627 246.627 347 240 347H0V0Z" fill="url(#paint0_linear_4098_10098)"/>
<path d="M0 0H240C246.627 0 252 5.37258 252 12V335C252 341.627 246.627 347 240 347H0V0Z" fill="url(#pattern0_4098_10098)" fill-opacity="0.2" style="mix-blend-mode:overlay"/>
<path d="M0 0H252H0ZM252 347H0H252ZM0 347V0V347ZM240 0C247.732 0 254 6.26801 254 14V333C254 340.732 247.732 347 240 347C245.523 347 250 341.627 250 335V12C250 5.37258 245.523 0 240 0Z" fill="#ADB5BD" mask="url(#path-1-inside-1_4098_10098)"/>
<path d="M232 315C232 321.627 226.627 327 220 327L30 327C23.3726 327 18 321.627 18 315L18 32C18 25.3726 23.3726 20 30 20L220 20C226.627 20 232 25.3726 232 32L232 315Z" fill="white"/>
<path d="M193.536 299.179C193.536 301.962 192.59 304.503 189.158 306.219L188.696 305.559C190.5 304.69 191.578 303.568 192.161 302.27L188.861 302.589L188.729 301.841L192.414 301.588C192.579 301.038 192.678 300.466 192.711 299.872L189.213 299.872L189.213 299.179L193.536 299.179ZM195.142 307.814L195.142 298.167L195.978 298.167L195.978 302.105L197.54 302.105L197.54 302.809L195.978 302.809L195.978 307.814L195.142 307.814ZM204.762 298.167L205.587 298.167L205.587 307.825L204.762 307.825L204.762 298.167ZM198.261 299.773L198.261 299.069L202.694 299.069L202.694 302.501L199.119 302.501L199.119 304.789C200.692 304.789 202.133 304.734 203.838 304.437L203.926 305.13C202.177 305.416 200.714 305.482 199.075 305.482L198.283 305.482L198.283 301.808L201.858 301.808L201.858 299.773L198.261 299.773ZM213.36 298.167L214.207 298.167L214.207 302.028L215.769 302.028L215.769 302.743L214.207 302.743L214.207 307.814L213.36 307.814L213.36 298.167ZM207.2 305.361L207.2 299.113L208.036 299.113L208.036 304.657C209.433 304.657 210.874 304.547 212.447 304.217L212.546 304.932C210.907 305.251 209.433 305.361 207.97 305.361L207.2 305.361Z" fill="#868E96"/>
<path d="M102.894 252.73L104.182 252.73L104.182 256.426L105.946 256.426L105.946 257.49L104.182 257.49L104.182 261.788L102.894 261.788L102.894 252.73ZM94.7459 256.636C94.7459 254.844 96.1599 253.57 98.0079 253.57C99.8559 253.57 101.256 254.844 101.256 256.636C101.256 258.442 99.8559 259.702 98.0079 259.702C96.1599 259.702 94.7459 258.442 94.7459 256.636ZM96.0059 256.636C96.0059 257.798 96.8739 258.582 98.0079 258.582C99.1419 258.582 100.01 257.798 100.01 256.636C100.01 255.488 99.1419 254.69 98.0079 254.69C96.8739 254.69 96.0059 255.488 96.0059 256.636ZM96.4119 264.826L96.4119 260.864L97.6999 260.864L97.6999 263.762L104.686 263.762L104.686 264.826L96.4119 264.826ZM107.056 253.444L108.33 253.444L108.33 258.442C110.304 258.428 111.732 258.358 113.328 258.022L113.51 259.058C111.746 259.422 110.22 259.492 107.994 259.492L107.056 259.492L107.056 253.444ZM108.274 262.726C108.274 261.242 109.856 260.374 112.418 260.374C114.98 260.374 116.548 261.242 116.548 262.726C116.548 264.21 114.98 265.078 112.418 265.078C109.856 265.078 108.274 264.21 108.274 262.726ZM109.548 262.726C109.548 263.58 110.612 264.056 112.418 264.056C114.21 264.056 115.274 263.58 115.274 262.726C115.274 261.872 114.21 261.41 112.418 261.41C110.612 261.41 109.548 261.872 109.548 262.726ZM111.886 257.252L111.886 256.244L115.218 256.244L115.218 255.096L111.886 255.096L111.886 254.102L115.218 254.102L115.218 252.716L116.506 252.716L116.506 260.262L115.218 260.262L115.218 257.252L111.886 257.252ZM127.105 255.572L129.681 255.572L129.681 252.73L130.983 252.73L130.983 261.942L129.681 261.942L129.681 256.636L127.105 256.636L127.105 255.572ZM120.777 259.226C122.667 258.54 123.801 256.804 123.801 254.956L123.801 253.472L125.103 253.472L125.103 254.984C125.103 256.678 126.209 258.302 128.029 258.96L127.357 259.954C125.999 259.422 124.991 258.4 124.473 257.112C123.941 258.54 122.891 259.674 121.449 260.248L120.777 259.226ZM122.989 264.826L122.989 260.948L124.277 260.948L124.277 263.762L131.263 263.762L131.263 264.826L122.989 264.826ZM141.837 252.716L143.083 252.716L143.083 265.078L141.837 265.078L141.837 258.722L140.381 258.722L140.381 264.476L139.149 264.476L139.149 252.982L140.381 252.982L140.381 257.644L141.837 257.644L141.837 252.716ZM132.345 261.592C134.137 260.584 134.977 258.47 134.977 255.992L134.977 255.18L132.667 255.18L132.667 254.13L138.365 254.13L138.365 255.18L136.223 255.18L136.223 255.992C136.223 258.232 137.063 260.234 138.813 261.158L138.071 262.138C136.881 261.48 136.083 260.346 135.635 258.918C135.215 260.542 134.389 261.83 133.143 262.586L132.345 261.592ZM147.526 253.654C149.346 253.654 150.648 255.32 150.648 257.98C150.648 260.626 149.346 262.32 147.526 262.32C145.692 262.32 144.376 260.626 144.376 257.98C144.376 255.32 145.692 253.654 147.526 253.654ZM145.622 257.98C145.622 259.954 146.392 261.172 147.526 261.172C148.646 261.172 149.416 259.954 149.416 257.98C149.416 256.02 148.646 254.816 147.526 254.816C146.392 254.816 145.622 256.02 145.622 257.98ZM152.482 265.092L152.482 252.73L153.77 252.73L153.77 255.782L155.674 255.782L155.674 256.846L153.77 256.846L153.77 259.436L155.674 259.436L155.674 260.514L153.77 260.514L153.77 265.092L152.482 265.092Z" fill="#212529"/>
<path d="M34 48C34 41.3726 39.3726 36 46 36H204C210.627 36 216 41.3726 216 48V206C216 212.627 210.627 218 204 218H46C39.3726 218 34 212.627 34 206V48Z" fill="url(#pattern1_4098_10098)"/>
<defs>
<pattern id="pattern0_4098_10098" patternContentUnits="objectBoundingBox" width="4.06349" height="2.95101">
<use xlink:href="#image0_4098_10098" transform="scale(0.00396825 0.00288184)"/>
</pattern>
<pattern id="pattern1_4098_10098" patternContentUnits="objectBoundingBox" width="1" height="1">
<use xlink:href="#image1_4098_10098" transform="translate(-0.00177936) scale(0.00088968)"/>
</pattern>
<linearGradient id="paint0_linear_4098_10098" x1="70" y1="166.981" x2="3" y2="166.981" gradientUnits="userSpaceOnUse">
<stop stop-color="#F1F3F5"/>
<stop offset="0.948182" stop-color="#DEE4E9"/>
<stop offset="1" stop-color="#F1F3F5"/>
</linearGradient>
</defs>
</svg>
