<svg width="16" height="16" viewBox="0 0 16 16" fill="none" xmlns="http://www.w3.org/2000/svg">
<g id="icn/16px/ask">
<path id="Vector" d="M7.99305 11.5465C8.17337 11.5465 8.32568 11.4843 8.45 11.3598C8.57432 11.2353 8.63647 11.0828 8.63647 10.9024C8.63647 10.7221 8.57421 10.5698 8.44969 10.4455C8.32516 10.3213 8.17274 10.2592 7.99242 10.2592C7.81211 10.2592 7.65979 10.3214 7.53547 10.4459C7.41116 10.5705 7.349 10.7229 7.349 10.9032C7.349 11.0835 7.41126 11.2358 7.53579 11.3602C7.66032 11.4844 7.81274 11.5465 7.99305 11.5465ZM8.00111 14C7.17121 14 6.39116 13.8425 5.66095 13.5276C4.93074 13.2126 4.29558 12.7852 3.75547 12.2453C3.21537 11.7054 2.78774 11.0705 2.47258 10.3406C2.15753 9.61074 2 8.8309 2 8.00111C2 7.17121 2.15747 6.39116 2.47242 5.66095C2.78737 4.93074 3.21479 4.29558 3.75468 3.75547C4.29458 3.21537 4.92947 2.78774 5.65937 2.47258C6.38926 2.15753 7.16911 2 7.99889 2C8.82879 2 9.60884 2.15747 10.3391 2.47242C11.0693 2.78737 11.7044 3.21479 12.2445 3.75468C12.7846 4.29458 13.2123 4.92947 13.5274 5.65937C13.8425 6.38926 14 7.16911 14 7.99889C14 8.82879 13.8425 9.60884 13.5276 10.3391C13.2126 11.0693 12.7852 11.7044 12.2453 12.2445C11.7054 12.7846 11.0705 13.2123 10.3406 13.5274C9.61074 13.8425 8.8309 14 8.00111 14ZM8.05116 5.29637C8.34253 5.29637 8.59468 5.38811 8.80763 5.57158C9.02068 5.75505 9.12721 5.98437 9.12721 6.25953C9.12721 6.49111 9.05916 6.69837 8.92305 6.88132C8.78705 7.06437 8.63158 7.23484 8.45663 7.39274C8.22737 7.59611 8.02553 7.81984 7.85111 8.06395C7.67668 8.30795 7.58342 8.57974 7.57132 8.87932C7.56721 8.99437 7.60768 9.09074 7.69274 9.16842C7.77779 9.24611 7.87695 9.28495 7.99021 9.28495C8.11168 9.28495 8.21453 9.24447 8.29874 9.16353C8.38295 9.08258 8.43679 8.98342 8.46026 8.86605C8.50237 8.649 8.59205 8.45568 8.72932 8.28611C8.86658 8.11642 9.01526 7.95511 9.17537 7.80216C9.40558 7.57774 9.60647 7.33311 9.77805 7.06826C9.94974 6.80332 10.0356 6.50784 10.0356 6.18184C10.0356 5.68142 9.83842 5.27026 9.44411 4.94837C9.04979 4.62658 8.58947 4.46568 8.06316 4.46568C7.68747 4.46568 7.33321 4.54884 7.00037 4.71516C6.66763 4.88158 6.40853 5.12432 6.22305 5.44337C6.16558 5.54137 6.14716 5.64447 6.16779 5.75268C6.18832 5.861 6.24384 5.94321 6.33437 5.99932C6.44963 6.06342 6.568 6.08174 6.68947 6.05426C6.81095 6.02668 6.91416 5.95747 6.9991 5.84663C7.12711 5.68063 7.282 5.54742 7.46379 5.447C7.64558 5.34658 7.84137 5.29637 8.05116 5.29637Z" fill="#99ADC9"/>
</g>
</svg>
