<svg width="272" height="355" viewBox="0 0 272 355" fill="none" xmlns="http://www.w3.org/2000/svg">
<g clip-path="url(#clip0_3626_50514)">
<path d="M0 4.86302C0 2.17725 2.17725 0 4.86301 0H257.411C265.468 0 272 6.53174 272 14.589V340.411C272 348.468 265.468 355 257.411 355H4.86301C2.17724 355 0 352.823 0 350.137V4.86302Z" fill="url(#paint0_linear_3626_50514)"/>
<circle cx="235.5" cy="101.5" r="6.89212" fill="#FFD773" stroke="#E7AD52" stroke-width="1.21575"/>
<circle cx="267.5" cy="188.5" r="6.89212" fill="#FFD773" stroke="#E7AD52" stroke-width="1.21575"/>
<circle cx="96.5" cy="90.5" r="6.89212" fill="#FFD773" stroke="#E7AD52" stroke-width="1.21575"/>
<circle cx="184.5" cy="82.5" r="6.89212" fill="#FFD773" stroke="#E7AD52" stroke-width="1.21575"/>
<circle cx="235.5" cy="52.5" r="6.89212" fill="#FFD773" stroke="#E7AD52" stroke-width="1.21575"/>
<circle cx="25.5" cy="113.5" r="6.89212" fill="#FFD773" stroke="#E7AD52" stroke-width="1.21575"/>
<circle cx="248.5" cy="143.5" r="6.89212" fill="#FFD773" stroke="#E7AD52" stroke-width="1.21575"/>
<circle cx="2.5" cy="56.5" r="6.89212" fill="#FFD773" stroke="#E7AD52" stroke-width="1.21575"/>
<circle cx="269.5" cy="70.5" r="6.89212" fill="#FFD773" stroke="#E7AD52" stroke-width="1.21575"/>
<circle cx="47.5" cy="73.5" r="6.89212" fill="#FFD773" stroke="#E7AD52" stroke-width="1.21575"/>
<circle cx="1.5" cy="151.5" r="6.89212" fill="#FFD773" stroke="#E7AD52" stroke-width="1.21575"/>
<circle cx="52.5" cy="136.5" r="6.89212" fill="#FFD773" stroke="#E7AD52" stroke-width="1.21575"/>
<circle cx="31.5" cy="170.5" r="6.89212" fill="#FFD773" stroke="#E7AD52" stroke-width="1.21575"/>
<circle cx="217.5" cy="165.5" r="6.89212" fill="#FFD773" stroke="#E7AD52" stroke-width="1.21575"/>
<g opacity="0.6">
<g filter="url(#filter0_i_3626_50514)">
<ellipse cx="22.5" cy="22" rx="22.5" ry="22" transform="matrix(-0.999986 0.00530279 -0.00533439 -0.999986 297 252)" fill="#E7E1D2"/>
</g>
<path d="M252.491 230.236C252.428 218.434 262.165 208.792 274.269 208.728C286.372 208.664 296.212 218.202 296.275 230.004C296.338 241.805 286.601 251.447 274.497 251.511C262.394 251.576 252.554 242.037 252.491 230.236Z" stroke="#D9A455" stroke-width="1.21575"/>
<g filter="url(#filter1_i_3626_50514)">
<ellipse cx="22.5" cy="22" rx="22.5" ry="22" transform="matrix(-0.999986 0.00530279 -0.00533439 -0.999986 263 246)" fill="#E7E1D2"/>
</g>
<path d="M218.491 224.236C218.428 212.434 228.165 202.792 240.269 202.728C252.372 202.664 262.212 212.202 262.275 224.004C262.338 235.805 252.601 245.447 240.497 245.511C228.394 245.576 218.554 236.037 218.491 224.236Z" stroke="#D9A455" stroke-width="1.21575"/>
<g filter="url(#filter2_i_3626_50514)">
<ellipse cx="22.5" cy="22" rx="22.5" ry="22" transform="matrix(-0.999986 0.00530279 -0.00533439 -0.999986 225 244)" fill="#E7E1D2"/>
</g>
<path d="M180.491 222.236C180.428 210.434 190.165 200.792 202.269 200.728C214.372 200.664 224.212 210.202 224.275 222.004C224.338 233.805 214.601 243.447 202.497 243.511C190.394 243.576 180.554 234.037 180.491 222.236Z" stroke="#D9A455" stroke-width="1.21575"/>
<g filter="url(#filter3_i_3626_50514)">
<ellipse cx="22.5" cy="22" rx="22.5" ry="22" transform="matrix(-0.999986 0.00530279 -0.00533439 -0.999986 172 238)" fill="#E7E1D2"/>
</g>
<path d="M127.491 216.236C127.428 204.434 137.165 194.792 149.269 194.728C161.372 194.664 171.212 204.202 171.275 216.004C171.338 227.805 161.601 237.447 149.497 237.511C137.394 237.576 127.554 228.037 127.491 216.236Z" stroke="#D9A455" stroke-width="1.21575"/>
<g filter="url(#filter4_i_3626_50514)">
<ellipse cx="22.5" cy="22" rx="22.5" ry="22" transform="matrix(-0.999986 0.00530279 -0.00533439 -0.999986 131 238)" fill="#E7E1D2"/>
</g>
<path d="M86.4911 216.236C86.4282 204.434 96.1654 194.792 108.269 194.728C120.372 194.664 130.212 204.202 130.275 216.004C130.338 227.805 120.601 237.447 108.497 237.511C96.3936 237.576 86.5541 228.037 86.4911 216.236Z" stroke="#D9A455" stroke-width="1.21575"/>
<g filter="url(#filter5_i_3626_50514)">
<ellipse cx="22.5" cy="22" rx="22.5" ry="22" transform="matrix(-0.999986 0.00530279 -0.00533439 -0.999986 86 240)" fill="#E7E1D2"/>
</g>
<path d="M41.4911 218.236C41.4282 206.434 51.1654 196.792 63.2688 196.728C75.3723 196.664 85.2118 206.202 85.2748 218.004C85.3377 229.805 75.6005 239.447 63.4971 239.511C51.3936 239.576 41.5541 230.037 41.4911 218.236Z" stroke="#D9A455" stroke-width="1.21575"/>
<g filter="url(#filter6_i_3626_50514)">
<ellipse cx="22.5" cy="22" rx="22.5" ry="22" transform="matrix(-0.999986 0.00530279 -0.00533439 -0.999986 49 244)" fill="#E7E1D2"/>
</g>
<path d="M4.49114 222.236C4.42819 210.434 14.1654 200.792 26.2688 200.728C38.3723 200.664 48.2118 210.202 48.2748 222.004C48.3377 233.805 38.6005 243.447 26.4971 243.511C14.3936 243.576 4.5541 234.037 4.49114 222.236Z" stroke="#D9A455" stroke-width="1.21575"/>
<g filter="url(#filter7_i_3626_50514)">
<ellipse cx="22.5" cy="22" rx="22.5" ry="22" transform="matrix(-0.999986 0.00530279 -0.00533439 -0.999986 12 251)" fill="#E7E1D2"/>
</g>
<path d="M-32.5089 229.236C-32.5718 217.434 -22.8346 207.792 -10.7312 207.728C1.37231 207.664 11.2118 217.202 11.2748 229.004C11.3377 240.805 1.60054 250.447 -10.5029 250.511C-22.6064 250.576 -32.4459 241.037 -32.5089 229.236Z" stroke="#D9A455" stroke-width="1.21575"/>
</g>
<rect x="-15" y="249" width="304" height="115" fill="url(#paint1_linear_3626_50514)"/>
<path d="M300.392 245C300.392 247.283 299.332 249.567 297.195 251.839C295.056 254.113 291.87 256.336 287.716 258.472C279.41 262.744 267.35 266.609 252.397 269.862C222.501 276.365 181.172 280.392 135.5 280.392C89.8285 280.392 48.4988 276.365 18.603 269.862C3.65017 266.609 -8.40951 262.744 -16.7162 258.472C-20.8703 256.336 -24.0555 254.113 -26.1949 251.839C-28.3315 249.567 -29.3921 247.283 -29.3921 245C-29.3921 242.717 -28.3315 240.433 -26.1949 238.161C-24.0555 235.887 -20.8703 233.664 -16.7162 231.528C-8.40951 227.256 3.65017 223.391 18.603 220.138C48.4988 213.635 89.8285 209.608 135.5 209.608C181.172 209.608 222.501 213.635 252.397 220.138C267.35 223.391 279.41 227.256 287.716 231.528C291.87 233.664 295.056 235.887 297.195 238.161C299.332 240.433 300.392 242.717 300.392 245Z" fill="#E8E88F" stroke="#B8B373" stroke-width="1.21575"/>
<g filter="url(#filter8_i_3626_50514)">
<circle cx="23.5" cy="23.5" r="23.5" transform="matrix(0.999986 -0.00535323 0.00528412 0.999986 -36 232)" fill="#E7E1D2"/>
</g>
<circle cx="23.5" cy="23.5" r="22.8921" transform="matrix(0.999986 -0.00535323 0.00528412 0.999986 -36 232)" stroke="#B8B373" stroke-width="1.21575"/>
<g filter="url(#filter9_i_3626_50514)">
<circle cx="23.5" cy="23.5" r="23.5" transform="matrix(0.999986 -0.00535323 0.00528412 0.999986 5 245)" fill="#E7E1D2"/>
</g>
<circle cx="23.5" cy="23.5" r="22.8921" transform="matrix(0.999986 -0.00535323 0.00528412 0.999986 5 245)" stroke="#B8B373" stroke-width="1.21575"/>
<g filter="url(#filter10_i_3626_50514)">
<circle cx="23.5" cy="23.5" r="23.5" transform="matrix(0.999986 -0.00535323 0.00528412 0.999986 47 250)" fill="#E7E1D2"/>
</g>
<circle cx="23.5" cy="23.5" r="22.8921" transform="matrix(0.999986 -0.00535323 0.00528412 0.999986 47 250)" stroke="#B8B373" stroke-width="1.21575"/>
<g filter="url(#filter11_i_3626_50514)">
<circle cx="23.5" cy="23.5" r="23.5" transform="matrix(0.999986 -0.00535323 0.00528412 0.999986 90 253)" fill="#E7E1D2"/>
</g>
<circle cx="23.5" cy="23.5" r="22.8921" transform="matrix(0.999986 -0.00535323 0.00528412 0.999986 90 253)" stroke="#B8B373" stroke-width="1.21575"/>
<g filter="url(#filter12_i_3626_50514)">
<circle cx="23.5" cy="23.5" r="23.5" transform="matrix(0.999986 -0.00535323 0.00528412 0.999986 133 253)" fill="#E7E1D2"/>
</g>
<circle cx="23.5" cy="23.5" r="22.8921" transform="matrix(0.999986 -0.00535323 0.00528412 0.999986 133 253)" stroke="#B8B373" stroke-width="1.21575"/>
<g filter="url(#filter13_i_3626_50514)">
<circle cx="23.5" cy="23.5" r="23.5" transform="matrix(0.999986 -0.00535323 0.00528412 0.999986 176 250)" fill="#E7E1D2"/>
</g>
<circle cx="23.5" cy="23.5" r="22.8921" transform="matrix(0.999986 -0.00535323 0.00528412 0.999986 176 250)" stroke="#B8B373" stroke-width="1.21575"/>
<g filter="url(#filter14_i_3626_50514)">
<circle cx="23.5" cy="23.5" r="23.5" transform="matrix(0.999986 -0.00535323 0.00528412 0.999986 219 249)" fill="#E7E1D2"/>
</g>
<circle cx="23.5" cy="23.5" r="22.8921" transform="matrix(0.999986 -0.00535323 0.00528412 0.999986 219 249)" stroke="#B8B373" stroke-width="1.21575"/>
<g filter="url(#filter15_i_3626_50514)">
<circle cx="23.5" cy="23.5" r="23.5" transform="matrix(0.999986 -0.00535323 0.00528412 0.999986 261 235)" fill="#E7E1D2"/>
</g>
<circle cx="23.5" cy="23.5" r="22.8921" transform="matrix(0.999986 -0.00535323 0.00528412 0.999986 261 235)" stroke="#B8B373" stroke-width="1.21575"/>
<rect width="4" height="10" transform="matrix(0.85765 -0.514234 0.511207 0.859457 107.999 268.002)" fill="#C1D3FF" stroke="#B8B373" stroke-width="1.21575"/>
<rect width="4" height="10" transform="matrix(0.85765 -0.514234 0.511207 0.859457 12.999 274.002)" fill="#F8C6BB" stroke="#B8B373" stroke-width="1.21575"/>
<rect width="4" height="10" transform="matrix(0.819812 0.572633 -0.569552 0.821956 153.999 273.002)" fill="#BDE4E9" stroke="#B8B373" stroke-width="1.21575"/>
<rect width="4" height="10" transform="matrix(0.816496 -0.577351 0.574269 0.818667 200.999 263.002)" fill="#C1D3FF" stroke="#B8B373" stroke-width="1.21575"/>
<rect width="4" height="10" transform="matrix(-0.993255 -0.115952 -0.11504 0.993361 61.999 262.002)" fill="#BDE4E9" stroke="#B8B373" stroke-width="1.21575"/>
<rect width="4" height="10" transform="matrix(0.627597 0.778538 -0.776075 0.630641 200.999 282.002)" fill="#F8C6BB" stroke="#B8B373" stroke-width="1.21575"/>
<rect width="4" height="10" transform="matrix(-0.180597 0.983557 -0.983298 -0.182001 243.999 264.002)" fill="#F8C6BB" stroke="#B8B373" stroke-width="1.21575"/>
<rect width="4" height="10" transform="matrix(-0.180866 0.983508 0.983248 0.182272 68.999 281.002)" fill="#C1D3FF" stroke="#B8B373" stroke-width="1.21575"/>
<rect width="4" height="10" transform="matrix(-0.180866 0.983508 0.983248 0.182272 26.999 257.002)" fill="#C1D3FF" stroke="#B8B373" stroke-width="1.21575"/>
<rect width="4" height="10" transform="matrix(0.627597 0.778538 -0.776075 0.630641 249.001 277)" fill="#BDE4E9" stroke="#B8B373" stroke-width="1.21575"/>
<path d="M236 192H246V234.679C246 235.73 245.416 236.694 244.484 237.181C242.301 238.32 239.699 238.32 237.516 237.181C236.584 236.694 236 235.73 236 234.679V192Z" fill="url(#paint2_linear_3626_50514)"/>
<mask id="mask0_3626_50514" style="mask-type:alpha" maskUnits="userSpaceOnUse" x="236" y="192" width="10" height="47">
<path d="M236 192H246V234.679C246 235.73 245.416 236.694 244.484 237.181C242.301 238.32 239.699 238.32 237.516 237.181C236.584 236.694 236 235.73 236 234.679V192Z" fill="url(#paint3_linear_3626_50514)"/>
</mask>
<g mask="url(#mask0_3626_50514)">
<rect width="41" height="4" transform="matrix(0.98094 0.194313 -0.340756 0.940152 226.002 196)" fill="white" fill-opacity="0.3"/>
<rect width="41" height="4" transform="matrix(0.98094 0.194313 -0.340756 0.940152 224.002 203)" fill="white" fill-opacity="0.3"/>
<rect width="41" height="4" transform="matrix(0.98094 0.194313 -0.340756 0.940152 221.002 211)" fill="white" fill-opacity="0.3"/>
<rect width="41" height="4" transform="matrix(0.98094 0.194313 -0.340756 0.940152 219.002 217)" fill="white" fill-opacity="0.3"/>
<rect width="41" height="4" transform="matrix(0.98094 0.194313 -0.340756 0.940152 215.999 224)" fill="white" fill-opacity="0.3"/>
</g>
<path d="M236.625 192.625H245.375V234.679C245.375 235.497 244.92 236.248 244.195 236.627C242.193 237.672 239.807 237.672 237.805 236.627C237.08 236.248 236.625 235.497 236.625 234.679V192.625Z" stroke="#9191C6" stroke-width="1.25003"/>
<path d="M233.587 186.253L240.5 169.628L247.413 186.252C248.542 188.968 247.976 192.094 245.967 194.242C243.008 197.404 237.991 197.404 235.033 194.242C233.023 192.094 232.458 188.968 233.587 186.253Z" fill="#FF9D22" stroke="#EE8E22" stroke-width="1.25003"/>
<path d="M237.264 187.704L241 180.376L244.735 187.703C245.609 189.417 245.205 191.505 243.755 192.769C242.176 194.145 239.823 194.145 238.244 192.769C236.795 191.505 236.391 189.417 237.264 187.704Z" fill="#FFB558" stroke="#EF8C1E" stroke-width="1.25003"/>
<path d="M26 192H36V234.679C36 235.73 35.4158 236.694 34.4841 237.181C32.3012 238.32 29.6988 238.32 27.5159 237.181C26.5842 236.694 26 235.73 26 234.679V192Z" fill="url(#paint4_linear_3626_50514)"/>
<mask id="mask1_3626_50514" style="mask-type:alpha" maskUnits="userSpaceOnUse" x="26" y="192" width="10" height="47">
<path d="M26 192H36V234.679C36 235.73 35.4158 236.694 34.4841 237.181C32.3012 238.32 29.6988 238.32 27.5159 237.181C26.5842 236.694 26 235.73 26 234.679V192Z" fill="url(#paint5_linear_3626_50514)"/>
</mask>
<g mask="url(#mask1_3626_50514)">
<rect width="41" height="4" transform="matrix(0.98094 0.194313 -0.340756 0.940152 16.002 196)" fill="white" fill-opacity="0.3"/>
<rect width="41" height="4" transform="matrix(0.98094 0.194313 -0.340756 0.940152 14.002 203)" fill="white" fill-opacity="0.3"/>
<rect width="41" height="4" transform="matrix(0.98094 0.194313 -0.340756 0.940152 11.002 211)" fill="white" fill-opacity="0.3"/>
<rect width="41" height="4" transform="matrix(0.98094 0.194313 -0.340756 0.940152 9.00195 217)" fill="white" fill-opacity="0.3"/>
<rect width="41" height="4" transform="matrix(0.98094 0.194313 -0.340756 0.940152 5.99902 224)" fill="white" fill-opacity="0.3"/>
</g>
<path d="M26.625 192.625H35.375V234.679C35.375 235.497 34.9202 236.248 34.1947 236.627C32.1932 237.672 29.8068 237.672 27.8053 236.627C27.0798 236.248 26.625 235.497 26.625 234.679V192.625Z" stroke="#9191C6" stroke-width="1.25003"/>
<path d="M23.587 186.253L30.5 169.628L37.4128 186.252C38.5422 188.968 37.9764 192.094 35.9665 194.242C33.0077 197.404 27.9911 197.404 25.0326 194.242C23.0232 192.094 22.4577 188.968 23.587 186.253Z" fill="#FF9D22" stroke="#EE8E22" stroke-width="1.25003"/>
<path d="M27.2643 187.704L31 180.376L34.7355 187.703C35.609 189.417 35.2048 191.505 33.755 192.769C32.176 194.145 29.8232 194.145 28.2443 192.769C26.7949 191.505 26.3909 189.417 27.2643 187.704Z" fill="#FFB558" stroke="#EF8C1E" stroke-width="1.25003"/>
<path d="M119.694 108.142L135.5 82.1693L151.306 108.142H119.694Z" fill="#5C70B5" stroke="#585C88" stroke-width="1.21575"/>
<path d="M141.392 81.9995C141.392 84.9772 138.978 87.3912 136 87.3912C133.022 87.3912 130.608 84.9772 130.608 81.9995C130.608 79.0218 133.022 76.6079 136 76.6079C138.978 76.6079 141.392 79.0218 141.392 81.9995Z" fill="#68DEF5" stroke="#63AFBF" stroke-width="1.21575"/>
<g filter="url(#filter16_f_3626_50514)">
<path d="M-1 353H254.411C262.468 353 269 346.468 269 338.411V3" stroke="url(#paint6_linear_3626_50514)" stroke-opacity="0.3" stroke-width="6.07877"/>
</g>
<g filter="url(#filter17_f_3626_50514)">
<path d="M-1 2H254.411C262.468 2 269 8.53174 269 16.589V352" stroke="url(#paint7_linear_3626_50514)" stroke-opacity="0.3" stroke-width="6.07877"/>
</g>
<g filter="url(#filter18_f_3626_50514)">
<path d="M-1 6H250.411C258.468 6 265 12.5317 265 20.589V349" stroke="url(#paint8_linear_3626_50514)" stroke-opacity="0.4" stroke-width="3.64726"/>
</g>
<g filter="url(#filter19_f_3626_50514)">
<path d="M268 2H9.29452C5.26587 2 2 5.26587 2 9.29452V352" stroke="url(#paint9_linear_3626_50514)" stroke-opacity="0.3" stroke-width="6.07877"/>
</g>
<g filter="url(#filter20_f_3626_50514)">
<path d="M269 6H14.2945C10.2659 6 7.00001 9.26587 7.00001 13.2945V349" stroke="url(#paint10_linear_3626_50514)" stroke-opacity="0.4" stroke-width="3.64726"/>
</g>
<g filter="url(#filter21_f_3626_50514)">
<path d="M1 2V352" stroke="url(#paint11_linear_3626_50514)" stroke-opacity="0.4" stroke-width="2.43151"/>
</g>
<g filter="url(#filter22_f_3626_50514)">
<path d="M11 6H254" stroke="url(#paint12_linear_3626_50514)" stroke-width="7.29452"/>
</g>
<g filter="url(#filter23_f_3626_50514)">
<path d="M5 6L5.00001 243" stroke="url(#paint13_linear_3626_50514)" stroke-opacity="0.5" stroke-width="3.64726" stroke-linecap="round"/>
</g>
<g filter="url(#filter24_f_3626_50514)">
<path d="M73 272H194" stroke="url(#paint14_linear_3626_50514)" stroke-width="1.21575"/>
</g>
<g filter="url(#filter25_f_3626_50514)">
<path d="M73 103H194" stroke="url(#paint15_linear_3626_50514)" stroke-width="1.21575"/>
</g>
<g filter="url(#filter26_f_3626_50514)">
<path d="M202.249 95H161L201.149 96.9586C208.806 97.3321 215.861 101.225 220.261 107.504C222.93 111.313 224.475 115.797 224.718 120.442L228 183V128.611L227.352 118.541C226.983 112.799 224.657 107.357 220.761 103.123C215.998 97.9458 209.284 95 202.249 95Z" fill="url(#paint16_linear_3626_50514)"/>
</g>
<g filter="url(#filter27_f_3626_50514)">
<path d="M145 97H67L106 92L145 97Z" fill="url(#paint17_linear_3626_50514)"/>
</g>
<g filter="url(#filter28_f_3626_50514)">
<path d="M67 277L202 277L131.628 284L67 277Z" fill="url(#paint18_linear_3626_50514)"/>
</g>
<g filter="url(#filter29_f_3626_50514)">
<path d="M-7 355H271" stroke="url(#paint19_linear_3626_50514)" stroke-width="1.82363"/>
</g>
<g filter="url(#filter30_f_3626_50514)">
<path d="M-7 0H271" stroke="url(#paint20_linear_3626_50514)" stroke-width="1.82363"/>
</g>
<g filter="url(#filter31_f_3626_50514)">
<path d="M262.051 336.383L261.891 232.986L260.353 337.565C260.335 338.777 259.842 339.932 258.978 340.782C255.547 344.162 251.154 346.37 246.426 347.122L238.021 346.429L240.402 347.681L244.683 347.332C245.268 347.284 245.85 347.214 246.426 347.122L256.001 347.912C259.795 345.301 262.058 340.989 262.051 336.383Z" fill="url(#paint21_linear_3626_50514)" fill-opacity="0.6"/>
</g>
<g filter="url(#filter32_f_3626_50514)">
<path d="M5 345.134L5 256.997L7.11009 336.026C7.28294 342.5 12.5001 347.702 18.9743 347.856L109 349.997L9.86301 349.997C7.17725 349.997 5 347.819 5 345.134Z" fill="url(#paint22_linear_3626_50514)" fill-opacity="0.5"/>
</g>
<g filter="url(#filter33_f_3626_50514)">
<path d="M6.36298 347.802L7.02708 340.432L12.7153 346.22L16.1877 348.35L6.36298 347.802Z" fill="#B8BF6F" fill-opacity="0.5"/>
</g>
<g filter="url(#filter34_f_3626_50514)">
<path d="M73 272H194" stroke="url(#paint23_linear_3626_50514)" stroke-width="0.607877"/>
</g>
<g filter="url(#filter35_f_3626_50514)">
<path d="M75 272H196.685C210.114 272 221 261.114 221 247.685V126" stroke="url(#paint24_linear_3626_50514)" stroke-opacity="0.4" stroke-width="3.64726"/>
</g>
<g filter="url(#filter36_f_3626_50514)">
<path d="M79 103H196.685C210.114 103 221 113.886 221 127.315V249" stroke="url(#paint25_linear_3626_50514)" stroke-opacity="0.4" stroke-width="3.64726"/>
</g>
<g filter="url(#filter37_f_3626_50514)">
<path d="M197 271H75.3151C61.8862 271 51 260.114 51 246.685V125" stroke="url(#paint26_linear_3626_50514)" stroke-opacity="0.4" stroke-width="3.64726"/>
</g>
<g filter="url(#filter38_f_3626_50514)">
<path d="M197 102H75.3151C61.8862 102 51 112.886 51 126.315V248" stroke="url(#paint27_linear_3626_50514)" stroke-opacity="0.4" stroke-width="3.64726"/>
</g>
</g>
<defs>
<filter id="filter0_i_3626_50514" x="251.883" y="201.757" width="45" height="50.3623" filterUnits="userSpaceOnUse" color-interpolation-filters="sRGB">
<feFlood flood-opacity="0" result="BackgroundImageFix"/>
<feBlend mode="normal" in="SourceGraphic" in2="BackgroundImageFix" result="shape"/>
<feColorMatrix in="SourceAlpha" type="matrix" values="0 0 0 0 0 0 0 0 0 0 0 0 0 0 0 0 0 0 127 0" result="hardAlpha"/>
<feOffset dy="-7.95285"/>
<feGaussianBlur stdDeviation="3.18114"/>
<feComposite in2="hardAlpha" operator="arithmetic" k2="-1" k3="1"/>
<feColorMatrix type="matrix" values="0 0 0 0 0.853548 0 0 0 0 0.853548 0 0 0 0 0.597428 0 0 0 1 0"/>
<feBlend mode="normal" in2="shape" result="effect1_innerShadow_3626_50514"/>
</filter>
<filter id="filter1_i_3626_50514" x="217.883" y="195.757" width="45" height="50.3623" filterUnits="userSpaceOnUse" color-interpolation-filters="sRGB">
<feFlood flood-opacity="0" result="BackgroundImageFix"/>
<feBlend mode="normal" in="SourceGraphic" in2="BackgroundImageFix" result="shape"/>
<feColorMatrix in="SourceAlpha" type="matrix" values="0 0 0 0 0 0 0 0 0 0 0 0 0 0 0 0 0 0 127 0" result="hardAlpha"/>
<feOffset dy="-7.95285"/>
<feGaussianBlur stdDeviation="3.18114"/>
<feComposite in2="hardAlpha" operator="arithmetic" k2="-1" k3="1"/>
<feColorMatrix type="matrix" values="0 0 0 0 0.853548 0 0 0 0 0.853548 0 0 0 0 0.597428 0 0 0 1 0"/>
<feBlend mode="normal" in2="shape" result="effect1_innerShadow_3626_50514"/>
</filter>
<filter id="filter2_i_3626_50514" x="179.883" y="193.757" width="45" height="50.3623" filterUnits="userSpaceOnUse" color-interpolation-filters="sRGB">
<feFlood flood-opacity="0" result="BackgroundImageFix"/>
<feBlend mode="normal" in="SourceGraphic" in2="BackgroundImageFix" result="shape"/>
<feColorMatrix in="SourceAlpha" type="matrix" values="0 0 0 0 0 0 0 0 0 0 0 0 0 0 0 0 0 0 127 0" result="hardAlpha"/>
<feOffset dy="-7.95285"/>
<feGaussianBlur stdDeviation="3.18114"/>
<feComposite in2="hardAlpha" operator="arithmetic" k2="-1" k3="1"/>
<feColorMatrix type="matrix" values="0 0 0 0 0.853548 0 0 0 0 0.853548 0 0 0 0 0.597428 0 0 0 1 0"/>
<feBlend mode="normal" in2="shape" result="effect1_innerShadow_3626_50514"/>
</filter>
<filter id="filter3_i_3626_50514" x="126.883" y="187.757" width="45" height="50.3623" filterUnits="userSpaceOnUse" color-interpolation-filters="sRGB">
<feFlood flood-opacity="0" result="BackgroundImageFix"/>
<feBlend mode="normal" in="SourceGraphic" in2="BackgroundImageFix" result="shape"/>
<feColorMatrix in="SourceAlpha" type="matrix" values="0 0 0 0 0 0 0 0 0 0 0 0 0 0 0 0 0 0 127 0" result="hardAlpha"/>
<feOffset dy="-7.95285"/>
<feGaussianBlur stdDeviation="3.18114"/>
<feComposite in2="hardAlpha" operator="arithmetic" k2="-1" k3="1"/>
<feColorMatrix type="matrix" values="0 0 0 0 0.853548 0 0 0 0 0.853548 0 0 0 0 0.597428 0 0 0 1 0"/>
<feBlend mode="normal" in2="shape" result="effect1_innerShadow_3626_50514"/>
</filter>
<filter id="filter4_i_3626_50514" x="85.8828" y="187.757" width="45" height="50.3623" filterUnits="userSpaceOnUse" color-interpolation-filters="sRGB">
<feFlood flood-opacity="0" result="BackgroundImageFix"/>
<feBlend mode="normal" in="SourceGraphic" in2="BackgroundImageFix" result="shape"/>
<feColorMatrix in="SourceAlpha" type="matrix" values="0 0 0 0 0 0 0 0 0 0 0 0 0 0 0 0 0 0 127 0" result="hardAlpha"/>
<feOffset dy="-7.95285"/>
<feGaussianBlur stdDeviation="3.18114"/>
<feComposite in2="hardAlpha" operator="arithmetic" k2="-1" k3="1"/>
<feColorMatrix type="matrix" values="0 0 0 0 0.853548 0 0 0 0 0.853548 0 0 0 0 0.597428 0 0 0 1 0"/>
<feBlend mode="normal" in2="shape" result="effect1_innerShadow_3626_50514"/>
</filter>
<filter id="filter5_i_3626_50514" x="40.8828" y="189.757" width="45" height="50.3623" filterUnits="userSpaceOnUse" color-interpolation-filters="sRGB">
<feFlood flood-opacity="0" result="BackgroundImageFix"/>
<feBlend mode="normal" in="SourceGraphic" in2="BackgroundImageFix" result="shape"/>
<feColorMatrix in="SourceAlpha" type="matrix" values="0 0 0 0 0 0 0 0 0 0 0 0 0 0 0 0 0 0 127 0" result="hardAlpha"/>
<feOffset dy="-7.95285"/>
<feGaussianBlur stdDeviation="3.18114"/>
<feComposite in2="hardAlpha" operator="arithmetic" k2="-1" k3="1"/>
<feColorMatrix type="matrix" values="0 0 0 0 0.853548 0 0 0 0 0.853548 0 0 0 0 0.597428 0 0 0 1 0"/>
<feBlend mode="normal" in2="shape" result="effect1_innerShadow_3626_50514"/>
</filter>
<filter id="filter6_i_3626_50514" x="3.88281" y="193.757" width="45" height="50.3623" filterUnits="userSpaceOnUse" color-interpolation-filters="sRGB">
<feFlood flood-opacity="0" result="BackgroundImageFix"/>
<feBlend mode="normal" in="SourceGraphic" in2="BackgroundImageFix" result="shape"/>
<feColorMatrix in="SourceAlpha" type="matrix" values="0 0 0 0 0 0 0 0 0 0 0 0 0 0 0 0 0 0 127 0" result="hardAlpha"/>
<feOffset dy="-7.95285"/>
<feGaussianBlur stdDeviation="3.18114"/>
<feComposite in2="hardAlpha" operator="arithmetic" k2="-1" k3="1"/>
<feColorMatrix type="matrix" values="0 0 0 0 0.853548 0 0 0 0 0.853548 0 0 0 0 0.597428 0 0 0 1 0"/>
<feBlend mode="normal" in2="shape" result="effect1_innerShadow_3626_50514"/>
</filter>
<filter id="filter7_i_3626_50514" x="-33.1172" y="200.757" width="45" height="50.3623" filterUnits="userSpaceOnUse" color-interpolation-filters="sRGB">
<feFlood flood-opacity="0" result="BackgroundImageFix"/>
<feBlend mode="normal" in="SourceGraphic" in2="BackgroundImageFix" result="shape"/>
<feColorMatrix in="SourceAlpha" type="matrix" values="0 0 0 0 0 0 0 0 0 0 0 0 0 0 0 0 0 0 127 0" result="hardAlpha"/>
<feOffset dy="-7.95285"/>
<feGaussianBlur stdDeviation="3.18114"/>
<feComposite in2="hardAlpha" operator="arithmetic" k2="-1" k3="1"/>
<feColorMatrix type="matrix" values="0 0 0 0 0.853548 0 0 0 0 0.853548 0 0 0 0 0.597428 0 0 0 1 0"/>
<feBlend mode="normal" in2="shape" result="effect1_innerShadow_3626_50514"/>
</filter>
<filter id="filter8_i_3626_50514" x="-35.876" y="225.2" width="47" height="53.6737" filterUnits="userSpaceOnUse" color-interpolation-filters="sRGB">
<feFlood flood-opacity="0" result="BackgroundImageFix"/>
<feBlend mode="normal" in="SourceGraphic" in2="BackgroundImageFix" result="shape"/>
<feColorMatrix in="SourceAlpha" type="matrix" values="0 0 0 0 0 0 0 0 0 0 0 0 0 0 0 0 0 0 127 0" result="hardAlpha"/>
<feOffset dy="-8.3421"/>
<feGaussianBlur stdDeviation="3.33684"/>
<feComposite in2="hardAlpha" operator="arithmetic" k2="-1" k3="1"/>
<feColorMatrix type="matrix" values="0 0 0 0 0.853548 0 0 0 0 0.853548 0 0 0 0 0.597428 0 0 0 1 0"/>
<feBlend mode="normal" in2="shape" result="effect1_innerShadow_3626_50514"/>
</filter>
<filter id="filter9_i_3626_50514" x="5.12402" y="238.2" width="47" height="53.6737" filterUnits="userSpaceOnUse" color-interpolation-filters="sRGB">
<feFlood flood-opacity="0" result="BackgroundImageFix"/>
<feBlend mode="normal" in="SourceGraphic" in2="BackgroundImageFix" result="shape"/>
<feColorMatrix in="SourceAlpha" type="matrix" values="0 0 0 0 0 0 0 0 0 0 0 0 0 0 0 0 0 0 127 0" result="hardAlpha"/>
<feOffset dy="-8.3421"/>
<feGaussianBlur stdDeviation="3.33684"/>
<feComposite in2="hardAlpha" operator="arithmetic" k2="-1" k3="1"/>
<feColorMatrix type="matrix" values="0 0 0 0 0.853548 0 0 0 0 0.853548 0 0 0 0 0.597428 0 0 0 1 0"/>
<feBlend mode="normal" in2="shape" result="effect1_innerShadow_3626_50514"/>
</filter>
<filter id="filter10_i_3626_50514" x="47.124" y="243.2" width="47" height="53.6737" filterUnits="userSpaceOnUse" color-interpolation-filters="sRGB">
<feFlood flood-opacity="0" result="BackgroundImageFix"/>
<feBlend mode="normal" in="SourceGraphic" in2="BackgroundImageFix" result="shape"/>
<feColorMatrix in="SourceAlpha" type="matrix" values="0 0 0 0 0 0 0 0 0 0 0 0 0 0 0 0 0 0 127 0" result="hardAlpha"/>
<feOffset dy="-8.3421"/>
<feGaussianBlur stdDeviation="3.33684"/>
<feComposite in2="hardAlpha" operator="arithmetic" k2="-1" k3="1"/>
<feColorMatrix type="matrix" values="0 0 0 0 0.853548 0 0 0 0 0.853548 0 0 0 0 0.597428 0 0 0 1 0"/>
<feBlend mode="normal" in2="shape" result="effect1_innerShadow_3626_50514"/>
</filter>
<filter id="filter11_i_3626_50514" x="90.124" y="246.2" width="47" height="53.6737" filterUnits="userSpaceOnUse" color-interpolation-filters="sRGB">
<feFlood flood-opacity="0" result="BackgroundImageFix"/>
<feBlend mode="normal" in="SourceGraphic" in2="BackgroundImageFix" result="shape"/>
<feColorMatrix in="SourceAlpha" type="matrix" values="0 0 0 0 0 0 0 0 0 0 0 0 0 0 0 0 0 0 127 0" result="hardAlpha"/>
<feOffset dy="-8.3421"/>
<feGaussianBlur stdDeviation="3.33684"/>
<feComposite in2="hardAlpha" operator="arithmetic" k2="-1" k3="1"/>
<feColorMatrix type="matrix" values="0 0 0 0 0.853548 0 0 0 0 0.853548 0 0 0 0 0.597428 0 0 0 1 0"/>
<feBlend mode="normal" in2="shape" result="effect1_innerShadow_3626_50514"/>
</filter>
<filter id="filter12_i_3626_50514" x="133.124" y="246.2" width="47" height="53.6737" filterUnits="userSpaceOnUse" color-interpolation-filters="sRGB">
<feFlood flood-opacity="0" result="BackgroundImageFix"/>
<feBlend mode="normal" in="SourceGraphic" in2="BackgroundImageFix" result="shape"/>
<feColorMatrix in="SourceAlpha" type="matrix" values="0 0 0 0 0 0 0 0 0 0 0 0 0 0 0 0 0 0 127 0" result="hardAlpha"/>
<feOffset dy="-8.3421"/>
<feGaussianBlur stdDeviation="3.33684"/>
<feComposite in2="hardAlpha" operator="arithmetic" k2="-1" k3="1"/>
<feColorMatrix type="matrix" values="0 0 0 0 0.853548 0 0 0 0 0.853548 0 0 0 0 0.597428 0 0 0 1 0"/>
<feBlend mode="normal" in2="shape" result="effect1_innerShadow_3626_50514"/>
</filter>
<filter id="filter13_i_3626_50514" x="176.124" y="243.2" width="47" height="53.6737" filterUnits="userSpaceOnUse" color-interpolation-filters="sRGB">
<feFlood flood-opacity="0" result="BackgroundImageFix"/>
<feBlend mode="normal" in="SourceGraphic" in2="BackgroundImageFix" result="shape"/>
<feColorMatrix in="SourceAlpha" type="matrix" values="0 0 0 0 0 0 0 0 0 0 0 0 0 0 0 0 0 0 127 0" result="hardAlpha"/>
<feOffset dy="-8.3421"/>
<feGaussianBlur stdDeviation="3.33684"/>
<feComposite in2="hardAlpha" operator="arithmetic" k2="-1" k3="1"/>
<feColorMatrix type="matrix" values="0 0 0 0 0.853548 0 0 0 0 0.853548 0 0 0 0 0.597428 0 0 0 1 0"/>
<feBlend mode="normal" in2="shape" result="effect1_innerShadow_3626_50514"/>
</filter>
<filter id="filter14_i_3626_50514" x="219.124" y="242.2" width="47" height="53.6737" filterUnits="userSpaceOnUse" color-interpolation-filters="sRGB">
<feFlood flood-opacity="0" result="BackgroundImageFix"/>
<feBlend mode="normal" in="SourceGraphic" in2="BackgroundImageFix" result="shape"/>
<feColorMatrix in="SourceAlpha" type="matrix" values="0 0 0 0 0 0 0 0 0 0 0 0 0 0 0 0 0 0 127 0" result="hardAlpha"/>
<feOffset dy="-8.3421"/>
<feGaussianBlur stdDeviation="3.33684"/>
<feComposite in2="hardAlpha" operator="arithmetic" k2="-1" k3="1"/>
<feColorMatrix type="matrix" values="0 0 0 0 0.853548 0 0 0 0 0.853548 0 0 0 0 0.597428 0 0 0 1 0"/>
<feBlend mode="normal" in2="shape" result="effect1_innerShadow_3626_50514"/>
</filter>
<filter id="filter15_i_3626_50514" x="261.124" y="228.2" width="47" height="53.6737" filterUnits="userSpaceOnUse" color-interpolation-filters="sRGB">
<feFlood flood-opacity="0" result="BackgroundImageFix"/>
<feBlend mode="normal" in="SourceGraphic" in2="BackgroundImageFix" result="shape"/>
<feColorMatrix in="SourceAlpha" type="matrix" values="0 0 0 0 0 0 0 0 0 0 0 0 0 0 0 0 0 0 127 0" result="hardAlpha"/>
<feOffset dy="-8.3421"/>
<feGaussianBlur stdDeviation="3.33684"/>
<feComposite in2="hardAlpha" operator="arithmetic" k2="-1" k3="1"/>
<feColorMatrix type="matrix" values="0 0 0 0 0.853548 0 0 0 0 0.853548 0 0 0 0 0.597428 0 0 0 1 0"/>
<feBlend mode="normal" in2="shape" result="effect1_innerShadow_3626_50514"/>
</filter>
<filter id="filter16_f_3626_50514" x="-2.21575" y="1.78425" width="275.471" height="355.471" filterUnits="userSpaceOnUse" color-interpolation-filters="sRGB">
<feFlood flood-opacity="0" result="BackgroundImageFix"/>
<feBlend mode="normal" in="SourceGraphic" in2="BackgroundImageFix" result="shape"/>
<feGaussianBlur stdDeviation="0.607877" result="effect1_foregroundBlur_3626_50514"/>
</filter>
<filter id="filter17_f_3626_50514" x="-2.1651" y="-2.20465" width="275.369" height="355.37" filterUnits="userSpaceOnUse" color-interpolation-filters="sRGB">
<feFlood flood-opacity="0" result="BackgroundImageFix"/>
<feBlend mode="normal" in="SourceGraphic" in2="BackgroundImageFix" result="shape"/>
<feGaussianBlur stdDeviation="0.582549" result="effect1_foregroundBlur_3626_50514"/>
</filter>
<filter id="filter18_f_3626_50514" x="-3.43151" y="1.74476" width="272.686" height="349.687" filterUnits="userSpaceOnUse" color-interpolation-filters="sRGB">
<feFlood flood-opacity="0" result="BackgroundImageFix"/>
<feBlend mode="normal" in="SourceGraphic" in2="BackgroundImageFix" result="shape"/>
<feGaussianBlur stdDeviation="1.21575" result="effect1_foregroundBlur_3626_50514"/>
</filter>
<filter id="filter19_f_3626_50514" x="-2.20416" y="-2.20465" width="271.369" height="355.37" filterUnits="userSpaceOnUse" color-interpolation-filters="sRGB">
<feFlood flood-opacity="0" result="BackgroundImageFix"/>
<feBlend mode="normal" in="SourceGraphic" in2="BackgroundImageFix" result="shape"/>
<feGaussianBlur stdDeviation="0.582549" result="effect1_foregroundBlur_3626_50514"/>
</filter>
<filter id="filter20_f_3626_50514" x="2.74525" y="1.74476" width="268.686" height="349.687" filterUnits="userSpaceOnUse" color-interpolation-filters="sRGB">
<feFlood flood-opacity="0" result="BackgroundImageFix"/>
<feBlend mode="normal" in="SourceGraphic" in2="BackgroundImageFix" result="shape"/>
<feGaussianBlur stdDeviation="1.21575" result="effect1_foregroundBlur_3626_50514"/>
</filter>
<filter id="filter21_f_3626_50514" x="-1.38092" y="0.834903" width="4.76183" height="352.33" filterUnits="userSpaceOnUse" color-interpolation-filters="sRGB">
<feFlood flood-opacity="0" result="BackgroundImageFix"/>
<feBlend mode="normal" in="SourceGraphic" in2="BackgroundImageFix" result="shape"/>
<feGaussianBlur stdDeviation="0.582549" result="effect1_foregroundBlur_3626_50514"/>
</filter>
<filter id="filter22_f_3626_50514" x="8.56849" y="-0.0789678" width="247.863" height="12.1579" filterUnits="userSpaceOnUse" color-interpolation-filters="sRGB">
<feFlood flood-opacity="0" result="BackgroundImageFix"/>
<feBlend mode="normal" in="SourceGraphic" in2="BackgroundImageFix" result="shape"/>
<feGaussianBlur stdDeviation="1.21575" result="effect1_foregroundBlur_3626_50514"/>
</filter>
<filter id="filter23_f_3626_50514" x="0.745251" y="1.74476" width="8.5095" height="245.51" filterUnits="userSpaceOnUse" color-interpolation-filters="sRGB">
<feFlood flood-opacity="0" result="BackgroundImageFix"/>
<feBlend mode="normal" in="SourceGraphic" in2="BackgroundImageFix" result="shape"/>
<feGaussianBlur stdDeviation="1.21575" result="effect1_foregroundBlur_3626_50514"/>
</filter>
<filter id="filter24_f_3626_50514" x="72.6353" y="271.027" width="121.729" height="1.94527" filterUnits="userSpaceOnUse" color-interpolation-filters="sRGB">
<feFlood flood-opacity="0" result="BackgroundImageFix"/>
<feBlend mode="normal" in="SourceGraphic" in2="BackgroundImageFix" result="shape"/>
<feGaussianBlur stdDeviation="0.182363" result="effect1_foregroundBlur_3626_50514"/>
</filter>
<filter id="filter25_f_3626_50514" x="72.7568" y="102.149" width="121.486" height="1.70212" filterUnits="userSpaceOnUse" color-interpolation-filters="sRGB">
<feFlood flood-opacity="0" result="BackgroundImageFix"/>
<feBlend mode="normal" in="SourceGraphic" in2="BackgroundImageFix" result="shape"/>
<feGaussianBlur stdDeviation="0.121575" result="effect1_foregroundBlur_3626_50514"/>
</filter>
<filter id="filter26_f_3626_50514" x="157.353" y="91.3527" width="74.2945" height="95.2945" filterUnits="userSpaceOnUse" color-interpolation-filters="sRGB">
<feFlood flood-opacity="0" result="BackgroundImageFix"/>
<feBlend mode="normal" in="SourceGraphic" in2="BackgroundImageFix" result="shape"/>
<feGaussianBlur stdDeviation="1.82363" result="effect1_foregroundBlur_3626_50514"/>
</filter>
<filter id="filter27_f_3626_50514" x="63.3527" y="88.3527" width="85.2945" height="12.2945" filterUnits="userSpaceOnUse" color-interpolation-filters="sRGB">
<feFlood flood-opacity="0" result="BackgroundImageFix"/>
<feBlend mode="normal" in="SourceGraphic" in2="BackgroundImageFix" result="shape"/>
<feGaussianBlur stdDeviation="1.82363" result="effect1_foregroundBlur_3626_50514"/>
</filter>
<filter id="filter28_f_3626_50514" x="63.3527" y="273.353" width="142.295" height="14.2945" filterUnits="userSpaceOnUse" color-interpolation-filters="sRGB">
<feFlood flood-opacity="0" result="BackgroundImageFix"/>
<feBlend mode="normal" in="SourceGraphic" in2="BackgroundImageFix" result="shape"/>
<feGaussianBlur stdDeviation="1.82363" result="effect1_foregroundBlur_3626_50514"/>
</filter>
<filter id="filter29_f_3626_50514" x="-7.36473" y="353.724" width="278.729" height="2.55269" filterUnits="userSpaceOnUse" color-interpolation-filters="sRGB">
<feFlood flood-opacity="0" result="BackgroundImageFix"/>
<feBlend mode="normal" in="SourceGraphic" in2="BackgroundImageFix" result="shape"/>
<feGaussianBlur stdDeviation="0.182363" result="effect1_foregroundBlur_3626_50514"/>
</filter>
<filter id="filter30_f_3626_50514" x="-7.36473" y="-1.27635" width="278.729" height="2.55269" filterUnits="userSpaceOnUse" color-interpolation-filters="sRGB">
<feFlood flood-opacity="0" result="BackgroundImageFix"/>
<feBlend mode="normal" in="SourceGraphic" in2="BackgroundImageFix" result="shape"/>
<feGaussianBlur stdDeviation="0.182363" result="effect1_foregroundBlur_3626_50514"/>
</filter>
<filter id="filter31_f_3626_50514" x="235.589" y="230.554" width="28.8933" height="119.789" filterUnits="userSpaceOnUse" color-interpolation-filters="sRGB">
<feFlood flood-opacity="0" result="BackgroundImageFix"/>
<feBlend mode="normal" in="SourceGraphic" in2="BackgroundImageFix" result="shape"/>
<feGaussianBlur stdDeviation="1.21575" result="effect1_foregroundBlur_3626_50514"/>
</filter>
<filter id="filter32_f_3626_50514" x="3.78425" y="255.781" width="106.432" height="95.4315" filterUnits="userSpaceOnUse" color-interpolation-filters="sRGB">
<feFlood flood-opacity="0" result="BackgroundImageFix"/>
<feBlend mode="normal" in="SourceGraphic" in2="BackgroundImageFix" result="shape"/>
<feGaussianBlur stdDeviation="0.607877" result="effect1_foregroundBlur_3626_50514"/>
</filter>
<filter id="filter33_f_3626_50514" x="1.50027" y="335.57" width="19.5502" height="17.643" filterUnits="userSpaceOnUse" color-interpolation-filters="sRGB">
<feFlood flood-opacity="0" result="BackgroundImageFix"/>
<feBlend mode="normal" in="SourceGraphic" in2="BackgroundImageFix" result="shape"/>
<feGaussianBlur stdDeviation="2.43151" result="effect1_foregroundBlur_3626_50514"/>
</filter>
<filter id="filter34_f_3626_50514" x="72.8784" y="271.575" width="121.243" height="0.850573" filterUnits="userSpaceOnUse" color-interpolation-filters="sRGB">
<feFlood flood-opacity="0" result="BackgroundImageFix"/>
<feBlend mode="normal" in="SourceGraphic" in2="BackgroundImageFix" result="shape"/>
<feGaussianBlur stdDeviation="0.0607877" result="effect1_foregroundBlur_3626_50514"/>
</filter>
<filter id="filter35_f_3626_50514" x="73.7842" y="124.784" width="150.255" height="150.255" filterUnits="userSpaceOnUse" color-interpolation-filters="sRGB">
<feFlood flood-opacity="0" result="BackgroundImageFix"/>
<feBlend mode="normal" in="SourceGraphic" in2="BackgroundImageFix" result="shape"/>
<feGaussianBlur stdDeviation="0.607877" result="effect1_foregroundBlur_3626_50514"/>
</filter>
<filter id="filter36_f_3626_50514" x="77.7842" y="99.9605" width="146.255" height="150.255" filterUnits="userSpaceOnUse" color-interpolation-filters="sRGB">
<feFlood flood-opacity="0" result="BackgroundImageFix"/>
<feBlend mode="normal" in="SourceGraphic" in2="BackgroundImageFix" result="shape"/>
<feGaussianBlur stdDeviation="0.607877" result="effect1_foregroundBlur_3626_50514"/>
</filter>
<filter id="filter37_f_3626_50514" x="47.961" y="123.784" width="150.255" height="150.255" filterUnits="userSpaceOnUse" color-interpolation-filters="sRGB">
<feFlood flood-opacity="0" result="BackgroundImageFix"/>
<feBlend mode="normal" in="SourceGraphic" in2="BackgroundImageFix" result="shape"/>
<feGaussianBlur stdDeviation="0.607877" result="effect1_foregroundBlur_3626_50514"/>
</filter>
<filter id="filter38_f_3626_50514" x="47.961" y="98.9605" width="150.255" height="150.255" filterUnits="userSpaceOnUse" color-interpolation-filters="sRGB">
<feFlood flood-opacity="0" result="BackgroundImageFix"/>
<feBlend mode="normal" in="SourceGraphic" in2="BackgroundImageFix" result="shape"/>
<feGaussianBlur stdDeviation="0.607877" result="effect1_foregroundBlur_3626_50514"/>
</filter>
<linearGradient id="paint0_linear_3626_50514" x1="136" y1="355" x2="136" y2="-2.46986e-06" gradientUnits="userSpaceOnUse">
<stop stop-color="#FFC34E"/>
<stop offset="0.930598" stop-color="#FFB72A"/>
<stop offset="0.969322" stop-color="#FFC85E"/>
<stop offset="1" stop-color="#F4AC1E"/>
</linearGradient>
<linearGradient id="paint1_linear_3626_50514" x1="137.223" y1="287.813" x2="137.223" y2="339.563" gradientUnits="userSpaceOnUse">
<stop stop-color="#C3CC5E"/>
<stop offset="1" stop-color="#B0B76A"/>
</linearGradient>
<linearGradient id="paint2_linear_3626_50514" x1="241" y1="192" x2="241" y2="239" gradientUnits="userSpaceOnUse">
<stop stop-color="#B4BCEB"/>
<stop offset="1" stop-color="#939EDE"/>
</linearGradient>
<linearGradient id="paint3_linear_3626_50514" x1="241" y1="192" x2="241" y2="239" gradientUnits="userSpaceOnUse">
<stop stop-color="#B4BCEB"/>
<stop offset="1" stop-color="#939EDE"/>
</linearGradient>
<linearGradient id="paint4_linear_3626_50514" x1="31" y1="192" x2="31" y2="239" gradientUnits="userSpaceOnUse">
<stop stop-color="#B4BCEB"/>
<stop offset="1" stop-color="#939EDE"/>
</linearGradient>
<linearGradient id="paint5_linear_3626_50514" x1="31" y1="192" x2="31" y2="239" gradientUnits="userSpaceOnUse">
<stop stop-color="#B4BCEB"/>
<stop offset="1" stop-color="#939EDE"/>
</linearGradient>
<linearGradient id="paint6_linear_3626_50514" x1="102.846" y1="380.632" x2="256.456" y2="-1.22609" gradientUnits="userSpaceOnUse">
<stop stop-color="white"/>
<stop offset="0.48" stop-color="white"/>
<stop offset="1" stop-color="white" stop-opacity="0.8"/>
</linearGradient>
<linearGradient id="paint7_linear_3626_50514" x1="102.846" y1="-25.6316" x2="256.456" y2="356.226" gradientUnits="userSpaceOnUse">
<stop stop-color="white" stop-opacity="0.4"/>
<stop offset="0.48" stop-color="white"/>
<stop offset="1" stop-color="white" stop-opacity="0.8"/>
</linearGradient>
<linearGradient id="paint8_linear_3626_50514" x1="99.8128" y1="6" x2="282.316" y2="319.58" gradientUnits="userSpaceOnUse">
<stop stop-opacity="0.05"/>
<stop offset="0.48" stop-opacity="0.05"/>
<stop offset="1" stop-opacity="0"/>
</linearGradient>
<linearGradient id="paint9_linear_3626_50514" x1="165.692" y1="-25.6316" x2="10.4281" y2="354.621" gradientUnits="userSpaceOnUse">
<stop stop-color="white" stop-opacity="0.4"/>
<stop offset="0.48" stop-color="white"/>
<stop offset="1" stop-color="white" stop-opacity="0.8"/>
</linearGradient>
<linearGradient id="paint10_linear_3626_50514" x1="169.703" y1="6" x2="-14.1551" y2="317.158" gradientUnits="userSpaceOnUse">
<stop stop-opacity="0.05"/>
<stop offset="0.48" stop-opacity="0.1"/>
<stop offset="1" stop-opacity="0.05"/>
</linearGradient>
<linearGradient id="paint11_linear_3626_50514" x1="29.6081" y1="-30.2049" x2="-3.26466" y2="362.617" gradientUnits="userSpaceOnUse">
<stop stop-color="#FF8400" stop-opacity="0.4"/>
<stop offset="0.48" stop-color="#FF8400"/>
<stop offset="0.705" stop-color="#B2B76F"/>
</linearGradient>
<linearGradient id="paint12_linear_3626_50514" x1="11.6308" y1="-44.4992" x2="238.407" y2="59.1243" gradientUnits="userSpaceOnUse">
<stop stop-color="#FF9F00" stop-opacity="0.3"/>
<stop offset="0.445" stop-color="#FF9F00"/>
<stop offset="1" stop-color="#FF9F00" stop-opacity="0.3"/>
</linearGradient>
<linearGradient id="paint13_linear_3626_50514" x1="55.4992" y1="6.61521" x2="-43.9077" y2="229.671" gradientUnits="userSpaceOnUse">
<stop stop-color="#FF8A16" stop-opacity="0.3"/>
<stop offset="0.445" stop-color="#FF8A16"/>
<stop offset="1" stop-color="#FF8A16" stop-opacity="0.3"/>
</linearGradient>
<linearGradient id="paint14_linear_3626_50514" x1="80.363" y1="230" x2="201.488" y2="255.683" gradientUnits="userSpaceOnUse">
<stop stop-color="white" stop-opacity="0"/>
<stop offset="0.445" stop-color="white" stop-opacity="0.3"/>
<stop offset="1" stop-color="white" stop-opacity="0"/>
</linearGradient>
<linearGradient id="paint15_linear_3626_50514" x1="80.363" y1="61.0003" x2="201.488" y2="86.6826" gradientUnits="userSpaceOnUse">
<stop stop-color="white" stop-opacity="0"/>
<stop offset="0.445" stop-color="white" stop-opacity="0.5"/>
<stop offset="1" stop-color="white" stop-opacity="0"/>
</linearGradient>
<linearGradient id="paint16_linear_3626_50514" x1="215.209" y1="80.9444" x2="221.404" y2="177.493" gradientUnits="userSpaceOnUse">
<stop offset="0.075" stop-color="white" stop-opacity="0.7"/>
<stop offset="0.25" stop-color="#FFC777" stop-opacity="0.02"/>
<stop offset="0.5" stop-color="white"/>
<stop offset="0.8" stop-color="#FFC777"/>
<stop offset="1" stop-color="white" stop-opacity="0.7"/>
</linearGradient>
<linearGradient id="paint17_linear_3626_50514" x1="106.57" y1="91" x2="115.369" y2="108.734" gradientUnits="userSpaceOnUse">
<stop stop-color="white"/>
<stop offset="1" stop-color="white" stop-opacity="0.1"/>
</linearGradient>
<linearGradient id="paint18_linear_3626_50514" x1="141.681" y1="285.4" x2="131.875" y2="257.965" gradientUnits="userSpaceOnUse">
<stop stop-color="white"/>
<stop offset="1" stop-color="white" stop-opacity="0.1"/>
</linearGradient>
<linearGradient id="paint19_linear_3626_50514" x1="9.91673" y1="313" x2="244.942" y2="427.492" gradientUnits="userSpaceOnUse">
<stop stop-color="white" stop-opacity="0"/>
<stop offset="0.445" stop-color="white" stop-opacity="0.3"/>
<stop offset="1" stop-color="white" stop-opacity="0"/>
</linearGradient>
<linearGradient id="paint20_linear_3626_50514" x1="9.91673" y1="-41.9997" x2="244.942" y2="72.4917" gradientUnits="userSpaceOnUse">
<stop stop-color="white" stop-opacity="0"/>
<stop offset="0.445" stop-color="white" stop-opacity="0.3"/>
<stop offset="1" stop-color="white" stop-opacity="0"/>
</linearGradient>
<linearGradient id="paint21_linear_3626_50514" x1="279.138" y1="325.129" x2="253.509" y2="345.408" gradientUnits="userSpaceOnUse">
<stop stop-color="white"/>
<stop offset="1" stop-color="white" stop-opacity="0.1"/>
</linearGradient>
<linearGradient id="paint22_linear_3626_50514" x1="34.0233" y1="358.451" x2="65.3931" y2="323.766" gradientUnits="userSpaceOnUse">
<stop stop-color="white"/>
<stop offset="1" stop-color="white" stop-opacity="0.1"/>
</linearGradient>
<linearGradient id="paint23_linear_3626_50514" x1="73.3141" y1="221.501" x2="203.094" y2="251.03" gradientUnits="userSpaceOnUse">
<stop stop-color="white" stop-opacity="0"/>
<stop offset="0.445" stop-color="white"/>
<stop offset="1" stop-color="white" stop-opacity="0"/>
</linearGradient>
<linearGradient id="paint24_linear_3626_50514" x1="116.179" y1="285.447" x2="193.312" y2="99.7701" gradientUnits="userSpaceOnUse">
<stop stop-opacity="0"/>
<stop offset="0.48" stop-opacity="0.1"/>
<stop offset="1" stop-opacity="0"/>
</linearGradient>
<linearGradient id="paint25_linear_3626_50514" x1="115.482" y1="103" x2="193.778" y2="276.045" gradientUnits="userSpaceOnUse">
<stop stop-opacity="0.05"/>
<stop offset="0.48" stop-opacity="0.05"/>
<stop offset="1" stop-opacity="0"/>
</linearGradient>
<linearGradient id="paint26_linear_3626_50514" x1="242.447" y1="202.92" x2="72.6824" y2="150.862" gradientUnits="userSpaceOnUse">
<stop stop-opacity="0.05"/>
<stop offset="0.48" stop-opacity="0.1"/>
<stop offset="1" stop-opacity="0.05"/>
</linearGradient>
<linearGradient id="paint27_linear_3626_50514" x1="156.778" y1="102" x2="78.6094" y2="275.189" gradientUnits="userSpaceOnUse">
<stop stop-opacity="0.05"/>
<stop offset="0.48" stop-opacity="0.1"/>
<stop offset="1" stop-opacity="0.05"/>
</linearGradient>
<clipPath id="clip0_3626_50514">
<path d="M0 4.86302C0 2.17725 2.17725 0 4.86301 0H257.411C265.468 0 272 6.53174 272 14.589V340.411C272 348.468 265.468 355 257.411 355H4.86301C2.17724 355 0 352.823 0 350.137V4.86302Z" fill="white"/>
</clipPath>
</defs>
</svg>
