<svg width="224" height="292" viewBox="0 0 224 292" fill="none" xmlns="http://www.w3.org/2000/svg">
<g clip-path="url(#clip0_3632_53280)">
<path d="M0 4C0 1.79086 1.79086 0 4 0H212C218.627 0 224 5.37258 224 12V280C224 286.627 218.627 292 212 292H4C1.79086 292 0 290.209 0 288V4Z" fill="black"/>
</g>
<defs>
<clipPath id="clip0_3632_53280">
<path d="M0 4C0 1.79086 1.79086 0 4 0H212C218.627 0 224 5.37258 224 12V280C224 286.627 218.627 292 212 292H4C1.79086 292 0 290.209 0 288V4Z" fill="white"/>
</clipPath>
</defs>
</svg>
