<svg width="25" height="24" viewBox="0 0 25 24" fill="none" xmlns="http://www.w3.org/2000/svg">
<g id="icn/24px/fill/camera">
<path id="Subtract" fill-rule="evenodd" clip-rule="evenodd" d="M9.23178 3.35982C9.42177 3.13182 9.70322 3 10 3H15C15.2968 3 15.5782 3.13182 15.7682 3.35982L17.9684 6H20.5C21.2957 6 22.0587 6.31607 22.6213 6.87868C23.1839 7.44129 23.5 8.20435 23.5 9V18C23.5 18.7957 23.1839 19.5587 22.6213 20.1213C22.0587 20.6839 21.2957 21 20.5 21H4.5C3.70435 21 2.94129 20.6839 2.37868 20.1213C1.81607 19.5587 1.5 18.7956 1.5 18V9C1.5 8.20435 1.81607 7.44129 2.37868 6.87868C2.94129 6.31607 3.70435 6 4.5 6H7.03162L9.23178 3.35982ZM12.5 17C14.7091 17 16.5 15.2091 16.5 13C16.5 10.7909 14.7091 9 12.5 9C10.2909 9 8.5 10.7909 8.5 13C8.5 15.2091 10.2909 17 12.5 17Z" fill="#DEE2E6"/>
<circle id="Ellipse 391" cx="12.5" cy="13" r="2" fill="#DEE2E6"/>
</g>
</svg>
