<svg width="16" height="16" viewBox="0 0 16 16" fill="none" xmlns="http://www.w3.org/2000/svg">
<g id="icn/16px/fill/camera">
<path id="Subtract" fill-rule="evenodd" clip-rule="evenodd" d="M5.82121 2.23988C5.94787 2.08788 6.1355 2 6.33335 2H9.66669C9.86454 2 10.0522 2.08788 10.1788 2.23988L11.6456 4H13.3334C13.8638 4 14.3725 4.21071 14.7476 4.58579C15.1226 4.96086 15.3334 5.46957 15.3334 6V12C15.3334 12.5304 15.1226 13.0391 14.7476 13.4142C14.3725 13.7893 13.8638 14 13.3334 14H2.66669C2.13625 14 1.62755 13.7893 1.25247 13.4142C0.877401 13.0391 0.666687 12.5304 0.666687 12V6C0.666687 5.46957 0.877401 4.96086 1.25247 4.58579C1.62755 4.21071 2.13625 4 2.66669 4H4.35444L5.82121 2.23988ZM8.00002 11.3333C9.47277 11.3333 10.6667 10.1394 10.6667 8.66667C10.6667 7.19391 9.47277 6 8.00002 6C6.52726 6 5.33335 7.19391 5.33335 8.66667C5.33335 10.1394 6.52726 11.3333 8.00002 11.3333Z" fill="#DEE2E6"/>
<circle id="Ellipse 391" cx="8.00002" cy="8.66665" r="1.33333" fill="#DEE2E6"/>
</g>
</svg>
