<svg width="15" height="8" viewBox="0 0 15 8" fill="none" xmlns="http://www.w3.org/2000/svg">
<g id="crown">
<path id="Crown" d="M0.695476 2.85523L1.48068 7.43828C1.53168 7.73592 1.83342 7.92266 2.12483 7.84347C3.1602 7.56213 5.48144 7 7.5 7C9.51856 7 11.8398 7.56212 12.8752 7.84347C13.1666 7.92266 13.4683 7.73592 13.5193 7.43828L14.3045 2.85523C14.3785 2.42328 13.9005 2.11188 13.5353 2.35411L10.6319 4.2799C10.393 4.43832 10.0701 4.36393 9.92465 4.11695L7.93083 0.731538C7.73745 0.403187 7.26255 0.403186 7.06917 0.731538L5.07535 4.11695C4.9299 4.36393 4.60701 4.43832 4.36815 4.27989L1.46466 2.35411C1.09945 2.11188 0.621471 2.42328 0.695476 2.85523Z" fill="#FFA256"/>
</g>
</svg>
