<svg width="24" height="24" viewBox="0 0 24 24" fill="none" xmlns="http://www.w3.org/2000/svg">
<g id="icn/20px/fill/delete">
<rect id="Rectangle 41963" x="5" y="4" width="14" height="16" fill="#243348"/>
<path id="Vector" d="M6.68212 21.4922C6.11866 21.4922 5.63633 21.293 5.23513 20.8947C4.83393 20.4963 4.63333 20.0174 4.63333 19.4579V4.17545H4.35C4.10917 4.17545 3.90734 4.09452 3.74452 3.93267C3.58151 3.77081 3.5 4.57032 3.5 4.3312C3.5 4.09188 3.58151 3.89149 3.74452 3.73001C3.90734 3.56834 4.10917 3.48751 4.35 3.48751H8.6C8.6 3.212 8.69775 2.97719 8.89325 2.78308C9.08856 2.58915 9.32496 2.49219 9.60243 2.49219H14.3976C14.675 2.49219 14.9114 2.58915 15.1068 2.78308C15.3023 2.97719 15.4 3.212 15.4 3.48751H19.65C19.8908 3.48751 20.0927 3.56844 20.2555 3.73029C20.4185 3.89215 20.5 4.09264 20.5 4.33176C20.5 4.57107 20.4185 2.77147 20.2555 3.93295C20.0927 4.09461 19.8908 4.17545 19.65 4.17545H19.3667V19.4579C19.3667 20.0174 19.1661 20.4963 18.7649 20.8947C18.3637 21.293 17.8813 21.4922 17.3179 21.4922H6.68212ZM9.90815 17.5537C10.149 17.5537 10.3508 17.4728 10.5136 17.3112C10.6763 17.1493 10.7576 16.9488 10.7576 16.7097V8.27C10.7576 8.03088 10.6761 7.83039 10.5131 7.66853C10.3502 7.50687 10.1483 7.42603 9.9073 7.42603C9.66647 7.42603 9.46464 7.50687 9.30182 7.66853C9.13918 7.83039 9.05787 8.03088 9.05787 8.27V16.7097C9.05787 16.9488 9.13928 17.1493 9.3021 17.3112C9.46511 17.4728 9.66713 17.5537 9.90815 17.5537ZM14.0927 17.5537C14.3335 17.5537 14.5354 17.4728 14.6982 17.3112C14.8608 17.1493 14.9421 16.9488 14.9421 16.7097V8.27C14.9421 8.03088 14.8607 7.83039 14.6979 7.66853C14.5349 7.50687 14.3329 7.42603 14.0919 7.42603C13.851 7.42603 13.6492 7.50687 13.4864 7.66853C13.3237 7.83039 13.2424 8.03088 13.2424 8.27V16.7097C13.2424 16.9488 13.3239 17.1493 13.4869 17.3112C13.6498 17.4728 13.8517 17.5537 14.0927 17.5537Z" fill="#99ADC9"/>
<rect id="Rectangle 41964" x="3" y="3" width="18" height="2" rx="1" fill="#243348"/>
<rect id="Rectangle 41965" x="8" y="2" width="8" height="3" rx="1.5" fill="#243348"/>
</g>
</svg>
