<svg width="24" height="24" viewBox="0 0 24 24" fill="none" xmlns="http://www.w3.org/2000/svg">
<g id="icn/24px/fill/delete2">
<path id="Union" fill-rule="evenodd" clip-rule="evenodd" d="M9 4C9 3.44772 9.44772 3 10 3H14C14.5523 3 15 3.44772 15 4H17H19C19.5523 4 20 4.44772 20 5C20 5.55228 19.5523 6 19 6V18C19 19.1046 18.1046 20 17 20H7C5.89543 20 5 19.1046 5 18V6C4.44772 6 4 5.55228 4 5C4 4.44772 4.44772 4 5 4H7H9Z" fill="#99ADC9"/>
<rect id="Rectangle 42054" width="8" height="1.5" rx="0.75" transform="matrix(-4.37114e-08 -1 -1 4.37114e-08 11 17)" fill="white"/>
<rect id="Rectangle 42055" width="8" height="1.5" rx="0.75" transform="matrix(-4.37114e-08 -1 -1 4.37114e-08 15 17)" fill="white"/>
</g>
</svg>
