<svg width="12" height="12" viewBox="0 0 12 12" fill="none" xmlns="http://www.w3.org/2000/svg">
<path id="Vector" d="M1.40506 10.5949H2.17889L9.02709 3.74674L8.25326 2.97291L1.40506 9.82111V10.5949ZM1.06288 11.5C0.905654 11.5 0.772563 11.4467 0.663607 11.34C0.554536 11.2334 0.5 11.1013 0.5 10.9436V9.91388C0.5 9.7635 0.526804 9.62008 0.580411 9.48362C0.633903 9.34717 0.717795 9.22179 0.832089 9.1075L9.16111 0.765079C9.25475 0.669467 9.35552 0.601413 9.46343 0.560918C9.57134 0.520306 9.68442 0.5 9.80266 0.5C9.92101 0.5 10.034 0.518972 10.1415 0.556915C10.2492 0.594858 10.3535 0.662041 10.4543 0.758465L11.2349 1.53229C11.3313 1.63313 11.3996 1.73756 11.4398 1.84559C11.4799 1.95361 11.5 2.06483 11.5 2.17924C11.5 2.30119 11.4789 2.41757 11.4366 2.52839C11.3943 2.6392 11.3271 2.7405 11.2349 2.83228L2.8925 11.1679C2.77821 11.2822 2.65312 11.3661 2.51725 11.4196C2.38137 11.4732 2.23848 11.5 2.08856 11.5H1.06288ZM8.63339 3.36661L8.25326 2.97291L9.02709 3.74674L8.63339 3.36661Z" fill="#FFA256"/>
</svg>
