<svg width="232" height="211" viewBox="0 0 232 211" fill="none" xmlns="http://www.w3.org/2000/svg">
<path d="M0 16.5C0 7.66344 7.16344 0.5 16 0.5H216C224.837 0.5 232 7.66344 232 16.5V194.5C232 203.337 224.837 210.5 216 210.5H16C7.16344 210.5 0 203.337 0 194.5V16.5Z" fill="url(#paint0_linear_502_4299)"/>
<circle cx="38" cy="50.5" r="16" fill="#243348"/>
<path d="M37.9748 55.712C35.9108 55.712 34.6388 54.464 34.5668 52.784H35.8148C35.8508 53.816 36.6188 54.62 37.9748 54.62C39.3188 54.62 40.1228 53.852 40.1228 52.892C40.1228 51.812 39.2588 51.176 37.8068 51.176H36.7508V50.132H37.8068C39.0308 50.132 39.8588 49.436 39.8588 48.44C39.8588 47.504 39.1148 46.736 37.8428 46.736C36.5468 46.736 35.8388 47.648 35.8388 48.668H34.5788C34.5788 46.976 35.8748 45.656 37.8428 45.656C39.8228 45.656 41.1068 46.892 41.1068 48.404C41.1068 49.58 40.2788 50.396 39.3908 50.612C40.3628 50.792 41.3588 51.548 41.3588 52.88C41.3588 54.488 39.9908 55.712 37.9748 55.712Z" fill="#F1F3F5"/>
<circle cx="90" cy="50.5" r="16" fill="#243348"/>
<path d="M89.8191 55.496V46.988H87.8271V45.884H91.0791V55.496H89.8191Z" fill="#F1F3F5"/>
<circle cx="142" cy="50.5" r="16" fill="#243348"/>
<path d="M143.076 55.496V53.324H138.228V52.256L142.788 45.884H144.276V52.256H145.848V53.324H144.276V55.496H143.076ZM139.524 52.256H143.076V47.264L139.524 52.256Z" fill="#F1F3F5"/>
<circle cx="194" cy="50.5" r="16" fill="#243348"/>
<path d="M190.651 55.496V54.68L194.059 51.26C195.283 50.024 195.763 49.244 195.763 48.56C195.763 47.432 194.995 46.772 193.795 46.772C192.499 46.772 191.803 47.756 191.803 48.824H190.543C190.543 47.084 191.803 45.656 193.807 45.656C195.739 45.656 197.011 46.82 197.011 48.548C197.011 49.58 196.423 50.456 194.983 51.932L192.463 54.404H197.335V55.496H190.651Z" fill="#F1F3F5"/>
<path d="M38 112.5L38 74.5" stroke="#868E96" stroke-dasharray="4 4"/>
<path d="M90 112.5L90 74.5" stroke="#868E96" stroke-dasharray="4 4"/>
<path d="M142 112.5L142 74.5" stroke="#868E96" stroke-dasharray="4 4"/>
<path d="M194 112.5L194 74.5" stroke="#868E96" stroke-dasharray="4 4"/>
<mask id="mask0_502_4299" style="mask-type:alpha" maskUnits="userSpaceOnUse" x="20" y="122" width="34" height="33">
<path d="M37 154.75C45.9746 154.75 53.25 147.475 53.25 138.5C53.25 129.525 45.9746 122.25 37 122.25C28.0254 122.25 20.75 129.525 20.75 138.5C20.75 147.475 28.0254 154.75 37 154.75Z" fill="#D9D9D9"/>
</mask>
<g mask="url(#mask0_502_4299)">
<path d="M37 154.75C45.9746 154.75 53.25 147.475 53.25 138.5C53.25 129.525 45.9746 122.25 37 122.25C28.0254 122.25 20.75 129.525 20.75 138.5C20.75 147.475 28.0254 154.75 37 154.75Z" fill="#4DB4FF"/>
<path d="M37 142.25C40.4518 142.25 43.25 139.452 43.25 136C43.25 132.548 40.4518 129.75 37 129.75C33.5482 129.75 30.75 132.548 30.75 136C30.75 139.452 33.5482 142.25 37 142.25Z" fill="#D3EDFF"/>
<path d="M37 171C45.2843 171 52 164.284 52 156C52 147.716 45.2843 141 37 141C28.7157 141 22 147.716 22 156C22 164.284 28.7157 171 37 171Z" fill="#D3EDFF"/>
</g>
<path d="M32.4867 167.728C34.4447 167.728 35.6437 168.388 35.6437 169.51C35.6437 170.643 34.4447 171.292 32.4867 171.292C30.5287 171.292 29.3297 170.643 29.3297 169.51C29.3297 168.388 30.5287 167.728 32.4867 167.728ZM32.4867 168.399C31.0347 168.399 30.1327 168.817 30.1327 169.51C30.1327 170.214 31.0347 170.632 32.4867 170.632C33.9277 170.632 34.8187 170.214 34.8187 169.51C34.8187 168.817 33.9277 168.399 32.4867 168.399ZM34.7197 161.678H35.5447V164.12H36.9747V164.813H35.5447V167.475H34.7197V161.678ZM28.5047 162.283H29.3187V163.757H32.1237V162.283H32.9377V166.716H28.5047V162.283ZM29.3187 164.417V166.045H32.1237V164.417H29.3187ZM37.421 162.393H42.569V163.075H40.413V163.493C40.413 164.769 41.359 165.902 42.756 166.375L42.36 167.013C41.271 166.639 40.435 165.88 40.028 164.901C39.621 166.012 38.73 166.892 37.586 167.299L37.168 166.65C38.598 166.144 39.599 164.901 39.599 163.504V163.075H37.421V162.393ZM43.823 161.678H44.648V164.153H46.089V164.835H44.648V167.486H43.823V161.678ZM41.59 167.761C43.548 167.761 44.747 168.399 44.747 169.51C44.747 170.632 43.548 171.281 41.59 171.281C39.643 171.281 38.444 170.632 38.444 169.51C38.444 168.399 39.643 167.761 41.59 167.761ZM41.59 168.421C40.149 168.421 39.247 168.828 39.247 169.51C39.247 170.214 40.149 170.632 41.59 170.632C43.042 170.632 43.933 170.214 43.933 169.51C43.933 168.828 43.042 168.421 41.59 168.421Z" fill="#F1F3F5"/>
<path d="M29.2436 119.458L30.1078 123.872C30.1735 124.207 30.5157 124.414 30.8455 124.324C32.0231 124.004 34.6856 123.357 37 123.357C39.3144 123.357 41.9769 124.004 43.1545 124.324C43.4843 124.414 43.8265 124.207 43.8922 123.872L44.7564 119.458C44.8513 118.974 44.3308 118.603 43.9035 118.851L40.5422 120.801C40.2804 120.953 39.9456 120.876 39.7766 120.625L37.477 117.209C37.2491 116.87 36.7509 116.87 36.523 117.209L34.2234 120.625C34.0544 120.876 33.7196 120.953 33.4578 120.801L30.0965 118.851C29.6692 118.603 29.1487 118.974 29.2436 119.458Z" fill="#FFA256"/>
<mask id="mask1_502_4299" style="mask-type:alpha" maskUnits="userSpaceOnUse" x="72" y="122" width="34" height="33">
<path d="M89 154.75C97.9746 154.75 105.25 147.475 105.25 138.5C105.25 129.525 97.9746 122.25 89 122.25C80.0254 122.25 72.75 129.525 72.75 138.5C72.75 147.475 80.0254 154.75 89 154.75Z" fill="#D9D9D9"/>
</mask>
<g mask="url(#mask1_502_4299)">
<path d="M89 154.75C97.9746 154.75 105.25 147.475 105.25 138.5C105.25 129.525 97.9746 122.25 89 122.25C80.0254 122.25 72.75 129.525 72.75 138.5C72.75 147.475 80.0254 154.75 89 154.75Z" fill="#4DB4FF"/>
<path d="M89 142.25C92.4518 142.25 95.25 139.452 95.25 136C95.25 132.548 92.4518 129.75 89 129.75C85.5482 129.75 82.75 132.548 82.75 136C82.75 139.452 85.5482 142.25 89 142.25Z" fill="#D3EDFF"/>
<path d="M89 171C97.2843 171 104 164.284 104 156C104 147.716 97.2843 141 89 141C80.7157 141 74 147.716 74 156C74 164.284 80.7157 171 89 171Z" fill="#D3EDFF"/>
</g>
<path d="M73.3285 162.822H75.4845V161.645H76.3205V162.822H78.4655V163.504H76.3205V163.68C76.3205 164.868 77.2775 165.935 78.6855 166.353L78.2895 167.013C77.1895 166.661 76.3425 165.935 75.9245 165C75.5065 166.023 74.6155 166.804 73.4825 167.189L73.0755 166.529C74.4835 166.1 75.4845 164.967 75.4845 163.68V163.504H73.3285V162.822ZM74.5055 171.171V167.838H80.5225V171.171H74.5055ZM75.3195 170.5H79.6975V168.509H75.3195V170.5ZM79.6865 167.387V161.689H80.5225V164.131H81.9525V164.846H80.5225V167.387H79.6865ZM84.7528 162.426C85.6328 162.426 86.3588 162.943 86.7768 163.845H89.2738V161.667H90.0988V171.325H89.2738V167.585H86.8208C86.4248 168.553 85.6768 169.125 84.7528 169.125C83.3558 169.125 82.3658 167.816 82.3658 165.77C82.3658 163.724 83.3558 162.426 84.7528 162.426ZM83.1468 165.77C83.1468 167.354 83.8068 168.388 84.7528 168.388C85.6878 168.388 86.3478 167.354 86.3478 165.77C86.3478 164.197 85.6878 163.174 84.7528 163.174C83.8068 163.174 83.1468 164.197 83.1468 165.77ZM87.0078 164.527C87.1068 164.901 87.1508 165.319 87.1508 165.77C87.1508 166.177 87.1068 166.551 87.0408 166.892H89.2738V164.527H87.0078ZM91.48 162.668H96.661V163.372H94.516V164.648C94.516 166.188 95.627 167.893 97.002 168.564L96.518 169.224C95.451 168.685 94.538 167.541 94.109 166.243C93.669 167.651 92.712 168.894 91.634 169.466L91.139 168.795C92.492 168.124 93.691 166.298 93.691 164.648V163.372H91.48V162.668ZM97.838 171.325V161.678H98.674V165.583H100.269V166.298H98.674V171.325H97.838ZM104.279 162.679V170.379H103.52V163.504L102.739 163.768L102.486 163.042L103.52 162.679H104.279Z" fill="#F1F3F5"/>
<mask id="mask2_502_4299" style="mask-type:alpha" maskUnits="userSpaceOnUse" x="124" y="122" width="34" height="33">
<path d="M141 154.75C149.975 154.75 157.25 147.475 157.25 138.5C157.25 129.525 149.975 122.25 141 122.25C132.025 122.25 124.75 129.525 124.75 138.5C124.75 147.475 132.025 154.75 141 154.75Z" fill="#D9D9D9"/>
</mask>
<g mask="url(#mask2_502_4299)">
<path d="M141 154.75C149.975 154.75 157.25 147.475 157.25 138.5C157.25 129.525 149.975 122.25 141 122.25C132.025 122.25 124.75 129.525 124.75 138.5C124.75 147.475 132.025 154.75 141 154.75Z" fill="#4DB4FF"/>
<path d="M141 142.25C144.452 142.25 147.25 139.452 147.25 136C147.25 132.548 144.452 129.75 141 129.75C137.548 129.75 134.75 132.548 134.75 136C134.75 139.452 137.548 142.25 141 142.25Z" fill="#D3EDFF"/>
<path d="M141 171C149.284 171 156 164.284 156 156C156 147.716 149.284 141 141 141C132.716 141 126 147.716 126 156C126 164.284 132.716 171 141 171Z" fill="#D3EDFF"/>
</g>
<path d="M124.039 162.822H126.195V161.645H127.031V162.822H129.176V163.504H127.031V163.68C127.031 164.868 127.988 165.935 129.396 166.353L129 167.013C127.9 166.661 127.053 165.935 126.635 165C126.217 166.023 125.326 166.804 124.193 167.189L123.786 166.529C125.194 166.1 126.195 164.967 126.195 163.68V163.504H124.039V162.822ZM125.216 171.171V167.838H131.233V171.171H125.216ZM126.03 170.5H130.408V168.509H126.03V170.5ZM130.397 167.387V161.689H131.233V164.131H132.663V164.846H131.233V167.387H130.397ZM135.464 162.426C136.344 162.426 137.07 162.943 137.488 163.845H139.985V161.667H140.81V171.325H139.985V167.585H137.532C137.136 168.553 136.388 169.125 135.464 169.125C134.067 169.125 133.077 167.816 133.077 165.77C133.077 163.724 134.067 162.426 135.464 162.426ZM133.858 165.77C133.858 167.354 134.518 168.388 135.464 168.388C136.399 168.388 137.059 167.354 137.059 165.77C137.059 164.197 136.399 163.174 135.464 163.174C134.518 163.174 133.858 164.197 133.858 165.77ZM137.719 164.527C137.818 164.901 137.862 165.319 137.862 165.77C137.862 166.177 137.818 166.551 137.752 166.892H139.985V164.527H137.719ZM142.191 162.668H147.372V163.372H145.227V164.648C145.227 166.188 146.338 167.893 147.713 168.564L147.229 169.224C146.162 168.685 145.249 167.541 144.82 166.243C144.38 167.651 143.423 168.894 142.345 169.466L141.85 168.795C143.203 168.124 144.402 166.298 144.402 164.648V163.372H142.191V162.668ZM148.549 171.325V161.678H149.385V165.583H150.98V166.298H149.385V171.325H148.549ZM153.318 169.488C154.88 167.959 157.19 166.419 157.19 165C157.19 164.01 156.475 163.449 155.65 163.449C155.056 163.449 154.418 163.669 154 164.604L153.274 164.274C153.835 162.987 154.891 162.646 155.65 162.646C156.805 162.646 157.993 163.559 157.993 165C157.982 166.639 156.013 168.146 154.506 169.488H158.103V170.291H153.318V169.488Z" fill="#F1F3F5"/>
<mask id="mask3_502_4299" style="mask-type:alpha" maskUnits="userSpaceOnUse" x="176" y="122" width="34" height="33">
<path d="M193 154.75C201.975 154.75 209.25 147.475 209.25 138.5C209.25 129.525 201.975 122.25 193 122.25C184.025 122.25 176.75 129.525 176.75 138.5C176.75 147.475 184.025 154.75 193 154.75Z" fill="#D9D9D9"/>
</mask>
<g mask="url(#mask3_502_4299)">
<path d="M193 154.75C201.975 154.75 209.25 147.475 209.25 138.5C209.25 129.525 201.975 122.25 193 122.25C184.025 122.25 176.75 129.525 176.75 138.5C176.75 147.475 184.025 154.75 193 154.75Z" fill="#4DB4FF"/>
<path d="M193 142.25C196.452 142.25 199.25 139.452 199.25 136C199.25 132.548 196.452 129.75 193 129.75C189.548 129.75 186.75 132.548 186.75 136C186.75 139.452 189.548 142.25 193 142.25Z" fill="#D3EDFF"/>
<path d="M193 171C201.284 171 208 164.284 208 156C208 147.716 201.284 141 193 141C184.716 141 178 147.716 178 156C178 164.284 184.716 171 193 171Z" fill="#D3EDFF"/>
</g>
<path d="M175.894 162.822H178.05V161.645H178.886V162.822H181.031V163.504H178.886V163.68C178.886 164.868 179.843 165.935 181.251 166.353L180.855 167.013C179.755 166.661 178.908 165.935 178.49 165C178.072 166.023 177.181 166.804 176.048 167.189L175.641 166.529C177.049 166.1 178.05 164.967 178.05 163.68V163.504H175.894V162.822ZM177.071 171.171V167.838H183.088V171.171H177.071ZM177.885 170.5H182.263V168.509H177.885V170.5ZM182.252 167.387V161.689H183.088V164.131H184.518V164.846H183.088V167.387H182.252ZM187.319 162.426C188.199 162.426 188.925 162.943 189.343 163.845H191.84V161.667H192.665V171.325H191.84V167.585H189.387C188.991 168.553 188.243 169.125 187.319 169.125C185.922 169.125 184.932 167.816 184.932 165.77C184.932 163.724 185.922 162.426 187.319 162.426ZM185.713 165.77C185.713 167.354 186.373 168.388 187.319 168.388C188.254 168.388 188.914 167.354 188.914 165.77C188.914 164.197 188.254 163.174 187.319 163.174C186.373 163.174 185.713 164.197 185.713 165.77ZM189.574 164.527C189.673 164.901 189.717 165.319 189.717 165.77C189.717 166.177 189.673 166.551 189.607 166.892H191.84V164.527H189.574ZM194.046 162.668H199.227V163.372H197.082V164.648C197.082 166.188 198.193 167.893 199.568 168.564L199.084 169.224C198.017 168.685 197.104 167.541 196.675 166.243C196.235 167.651 195.278 168.894 194.2 169.466L193.705 168.795C195.058 168.124 196.257 166.298 196.257 164.648V163.372H194.046V162.668ZM200.404 171.325V161.678H201.24V165.583H202.835V166.298H201.24V171.325H200.404ZM209.045 166.397C209.694 166.782 210.244 167.431 210.244 168.201C210.244 169.499 209.034 170.445 207.681 170.445C206.339 170.445 205.129 169.499 205.129 168.201H205.921C205.921 168.927 206.636 169.664 207.681 169.664C208.737 169.664 209.463 168.938 209.463 168.212C209.463 167.486 208.968 166.771 207.703 166.771H207.12V166.001H207.703C208.792 166.001 209.364 165.374 209.364 164.692C209.364 164.054 208.704 163.383 207.747 163.383C206.79 163.383 206.141 164.043 206.141 164.714H205.349C205.349 163.504 206.493 162.613 207.747 162.613C209.012 162.613 210.134 163.504 210.134 164.714C210.134 165.418 209.639 166.012 209.045 166.397Z" fill="#F1F3F5"/>
<defs>
<linearGradient id="paint0_linear_502_4299" x1="116" y1="0.5" x2="116" y2="210.5" gradientUnits="userSpaceOnUse">
<stop stop-color="#212529"/>
<stop offset="1" stop-color="#060D24"/>
</linearGradient>
</defs>
</svg>
