<svg width="232" height="210" viewBox="0 0 232 210" fill="none" xmlns="http://www.w3.org/2000/svg">
<path d="M0 16C0 7.16344 7.16344 0 16 0H216C224.837 0 232 7.16344 232 16V194C232 202.837 224.837 210 216 210H16C7.16344 210 0 202.837 0 194V16Z" fill="url(#paint0_linear_502_4217)"/>
<path d="M19 42C19 37.5817 22.5817 34 27 34H174C178.418 34 182 37.5817 182 42V66C182 70.4183 178.418 74 174 74H27C22.5817 74 19 70.4183 19 66V42Z" fill="#243348"/>
<path d="M41.482 48.99V55.332H42.896V56.508H41.482V58.902H40.306V56.508H35.714V55.36L40.306 48.99H41.482ZM37.142 55.332H40.306V50.936L37.142 55.332ZM52.5092 47.73H53.7972V55.024H52.5092V53.176H49.8352V54.184H44.1512V48.64H49.8352V49.676H52.5092V47.73ZM45.4112 53.162H48.5752V49.676H45.4112V53.162ZM45.5792 57.712C45.5792 56.228 47.1472 55.36 49.7232 55.36C52.2712 55.36 53.8532 56.228 53.8532 57.712C53.8532 59.21 52.2712 60.064 49.7232 60.064C47.1472 60.064 45.5792 59.21 45.5792 57.712ZM46.8392 57.712C46.8392 58.566 47.9032 59.042 49.7232 59.042C51.5152 59.042 52.5652 58.566 52.5652 57.712C52.5652 56.858 51.5152 56.382 49.7232 56.382C47.9032 56.382 46.8392 56.858 46.8392 57.712ZM49.8352 52.126H52.5092V50.726H49.8352V52.126ZM64.1756 47.702H65.4776V60.106H64.1756V47.702ZM55.7616 52.98C55.7616 50.32 57.0916 48.654 58.9256 48.654C60.7596 48.654 62.1036 50.32 62.1036 52.98C62.1036 55.626 60.7596 57.32 58.9256 57.32C57.0916 57.32 55.7616 55.626 55.7616 52.98ZM57.0076 52.98C57.0076 54.954 57.7916 56.172 58.9256 56.172C60.0736 56.172 60.8576 54.954 60.8576 52.98C60.8576 51.02 60.0736 49.816 58.9256 49.816C57.7916 49.816 57.0076 51.02 57.0076 52.98ZM73.2659 51.846H76.0099V47.702H77.2979V60.106H76.0099V52.882H73.2659V51.846ZM67.0219 56.466C68.9119 55.542 70.1859 53.176 70.1859 50.866V48.752H71.4739V50.866C71.4739 53.134 72.7479 55.402 74.5959 56.256L73.8399 57.278C72.4399 56.578 71.3899 55.178 70.8579 53.484C70.3119 55.262 69.2339 56.76 67.8339 57.502L67.0219 56.466ZM81.8208 57.544C83.8088 55.584 86.6648 53.806 86.6648 52.042C86.6648 50.852 85.8108 50.194 84.8168 50.194C84.1028 50.194 83.3048 50.446 82.8148 51.58L81.6668 51.076C82.4228 49.382 83.8648 48.962 84.8168 48.962C86.3148 48.962 87.8968 50.152 87.8968 52.042C87.8968 54.114 85.5448 55.906 83.6688 57.544H88.0508V58.776H81.8068V57.544H81.8208ZM97.6557 47.73H98.9437V56.858H97.6557V52.21H94.9677V54.814H89.3117V48.556H90.6137V50.656H93.6937V48.556H94.9677V51.16H97.6557V47.73ZM90.6137 53.778H93.6937V51.664H90.6137V53.778ZM90.9637 59.826V55.976H92.2377V58.762H99.2377V59.826H90.9637ZM102.308 55.584H110.806V60.092H109.518V56.62H102.308V55.584ZM100.362 53.456C101.79 52.602 102.252 50.894 102.252 49.592V48.444H103.484V49.592C103.484 50.586 103.708 52.014 104.59 53.008C105.43 52.028 105.654 50.642 105.654 49.592V48.444H106.872V49.592C106.872 51.006 107.348 52.644 108.762 53.456L108.062 54.366C107.152 53.848 106.592 52.994 106.284 52C105.99 53.008 105.472 53.946 104.562 54.52C103.652 53.946 103.134 52.966 102.854 51.944C102.532 52.938 101.972 53.834 101.076 54.366L100.362 53.456ZM109.518 54.954V47.73H110.806V54.954H109.518ZM123.785 47.702H125.087V60.106H123.785V47.702ZM115.371 52.98C115.371 50.32 116.701 48.654 118.535 48.654C120.369 48.654 121.713 50.32 121.713 52.98C121.713 55.626 120.369 57.32 118.535 57.32C116.701 57.32 115.371 55.626 115.371 52.98ZM116.617 52.98C116.617 54.954 117.401 56.172 118.535 56.172C119.683 56.172 120.467 54.954 120.467 52.98C120.467 51.02 119.683 49.816 118.535 49.816C117.401 49.816 116.617 51.02 116.617 52.98ZM130.005 48.654C131.671 48.654 132.903 50.068 133.085 52.378H135.619V47.702H136.907V60.106H135.619V53.414H133.099C132.973 55.808 131.713 57.32 130.005 57.32C128.199 57.32 126.897 55.626 126.897 52.98C126.897 50.32 128.199 48.654 130.005 48.654ZM128.115 52.98C128.115 54.954 128.885 56.172 130.005 56.172C131.111 56.172 131.867 54.954 131.867 52.98C131.867 51.02 131.111 49.816 130.005 49.816C128.885 49.816 128.115 51.02 128.115 52.98ZM140.888 48.696H142.19V50.222C142.19 51.384 142.764 52.854 143.996 53.722C145.214 52.882 145.774 51.426 145.774 50.222V48.696H147.076V50.222C147.076 51.734 147.874 53.274 149.526 53.96L148.826 54.94C147.65 54.408 146.852 53.442 146.432 52.28C146.026 53.47 145.242 54.534 143.982 55.094C142.75 54.52 141.952 53.428 141.546 52.252C141.112 53.386 140.314 54.394 139.152 54.94L138.48 53.96C140.062 53.246 140.888 51.608 140.888 50.222V48.696ZM138.41 58.482V57.39H149.596V58.482H138.41ZM150.384 48.962H157.062V50.04H154.402V51.384C154.402 53.33 155.69 55.514 157.538 56.396L156.81 57.418C155.438 56.746 154.332 55.346 153.786 53.722C153.226 55.472 152.078 57.012 150.678 57.726L149.922 56.704C151.756 55.808 153.128 53.484 153.128 51.384V50.04H150.384V48.962ZM158.392 60.092V47.73H159.68V52.644H161.64V53.722H159.68V60.092H158.392ZM164.444 48.668L164.248 56.438H163.1L162.876 48.668H164.444ZM162.932 58.356C162.932 57.95 163.198 57.628 163.674 57.628C164.136 57.628 164.402 57.95 164.402 58.356C164.402 58.776 164.136 59.098 163.674 59.098C163.198 59.098 162.932 58.776 162.932 58.356Z" fill="#F1F3F5"/>
<path d="M45.0681 84.0193C44.2674 85.0307 42.7326 85.0307 41.9319 84.0193L34 74L53 74L45.0681 84.0193Z" fill="#243348"/>
<mask id="mask0_502_4217" style="mask-type:alpha" maskUnits="userSpaceOnUse" x="23" y="110" width="42" height="42">
<path d="M44 151.312C55.2183 151.312 64.3125 142.218 64.3125 131C64.3125 119.782 55.2183 110.688 44 110.688C32.7817 110.688 23.6875 119.782 23.6875 131C23.6875 142.218 32.7817 151.312 44 151.312Z" fill="#D9D9D9"/>
</mask>
<g mask="url(#mask0_502_4217)">
<path d="M44 151.312C55.2183 151.312 64.3125 142.218 64.3125 131C64.3125 119.782 55.2183 110.688 44 110.688C32.7817 110.688 23.6875 119.782 23.6875 131C23.6875 142.218 32.7817 151.312 44 151.312Z" fill="#4DB4FF"/>
<path d="M44 135.687C48.3147 135.687 51.8125 132.19 51.8125 127.875C51.8125 123.56 48.3147 120.062 44 120.062C39.6853 120.062 36.1875 123.56 36.1875 127.875C36.1875 132.19 39.6853 135.687 44 135.687Z" fill="#D3EDFF"/>
<path d="M44 171.625C54.3553 171.625 62.75 163.23 62.75 152.875C62.75 142.52 54.3553 134.125 44 134.125C33.6447 134.125 25.25 142.52 25.25 152.875C25.25 163.23 33.6447 171.625 44 171.625Z" fill="#D3EDFF"/>
</g>
<path d="M38.2157 167.318C40.8197 167.318 42.4437 168.228 42.4437 169.754C42.4437 171.28 40.8197 172.204 38.2157 172.204C35.6117 172.204 33.9737 171.28 33.9737 169.754C33.9737 168.228 35.6117 167.318 38.2157 167.318ZM32.8117 166.31V160.43H34.5337V162.012H37.0957V160.43H38.8317V166.31H32.8117ZM34.5337 164.952H37.0957V163.356H34.5337V164.952ZM35.7097 169.754C35.7097 170.482 36.5917 170.832 38.2157 170.832C39.8397 170.832 40.7357 170.482 40.7357 169.754C40.7357 169.026 39.8397 168.69 38.2157 168.69C36.5917 168.69 35.7097 169.026 35.7097 169.754ZM40.5677 167.038V159.632H42.3037V162.572H43.9837V164H42.3037V167.038H40.5677ZM44.478 160.472H51.254V161.872H48.776C48.79 163.342 49.658 164.756 51.632 165.344L50.806 166.716C49.42 166.296 48.482 165.456 47.936 164.378C47.376 165.638 46.382 166.646 44.898 167.136L44.03 165.764C46.074 165.092 46.998 163.468 47.012 161.872H44.478V160.472ZM45.724 169.74C45.724 168.228 47.348 167.318 49.952 167.318C52.556 167.318 54.194 168.228 54.194 169.74C54.194 171.266 52.556 172.19 49.952 172.19C47.348 172.19 45.724 171.266 45.724 169.74ZM47.446 169.74C47.446 170.468 48.342 170.832 49.952 170.832C51.59 170.832 52.472 170.468 52.472 169.74C52.472 169.012 51.59 168.676 49.952 168.676C48.342 168.676 47.446 169.012 47.446 169.74ZM52.304 167.08V159.632H54.054V162.544H55.734V163.972H54.054V167.08H52.304Z" fill="white"/>
<path d="M35.2285 106.439L36.2678 112.337C36.3291 112.685 36.6857 112.899 37.0238 112.796C38.3205 112.402 41.3614 111.571 44 111.571C46.6386 111.571 49.6795 112.402 50.9762 112.796C51.3143 112.899 51.6709 112.685 51.7322 112.337L52.7715 106.439C52.8586 105.945 52.3153 105.584 51.8936 105.856L47.9585 108.394C47.6863 108.569 47.3229 108.485 47.1551 108.208L44.4918 103.812C44.268 103.442 43.732 103.442 43.5082 103.812L40.8449 108.208C40.6771 108.485 40.3137 108.569 40.0415 108.394L36.1064 105.856C35.6847 105.584 35.1414 105.945 35.2285 106.439Z" fill="#FFA256"/>
<mask id="mask1_502_4217" style="mask-type:alpha" maskUnits="userSpaceOnUse" x="84" y="116" width="34" height="34">
<path d="M101 149.25C109.975 149.25 117.25 141.975 117.25 133C117.25 124.025 109.975 116.75 101 116.75C92.0254 116.75 84.75 124.025 84.75 133C84.75 141.975 92.0254 149.25 101 149.25Z" fill="#D9D9D9"/>
</mask>
<g mask="url(#mask1_502_4217)">
<path d="M101 149.25C109.975 149.25 117.25 141.975 117.25 133C117.25 124.025 109.975 116.75 101 116.75C92.0254 116.75 84.75 124.025 84.75 133C84.75 141.975 92.0254 149.25 101 149.25Z" fill="#CED4DA"/>
<path d="M101 136.75C104.452 136.75 107.25 133.952 107.25 130.5C107.25 127.048 104.452 124.25 101 124.25C97.5482 124.25 94.75 127.048 94.75 130.5C94.75 133.952 97.5482 136.75 101 136.75Z" fill="#F1F3F5"/>
<path d="M101 165.5C109.284 165.5 116 158.784 116 150.5C116 142.216 109.284 135.5 101 135.5C92.7157 135.5 86 142.216 86 150.5C86 158.784 92.7157 165.5 101 165.5Z" fill="#F1F3F5"/>
</g>
<path d="M85.2243 157.322H87.3913V156.134H88.2053V157.322H90.3613V157.993H88.2053V158.169C88.2053 159.368 89.1733 160.424 90.5703 160.842L90.1853 161.502C89.0853 161.15 88.2273 160.413 87.8093 159.478C87.4023 160.512 86.5003 161.304 85.3673 161.678L84.9713 161.029C86.3793 160.589 87.3913 159.467 87.3913 158.169V157.993H85.2243V157.322ZM91.5823 156.178H92.4073V158.631H93.8483V159.324H92.4073V161.876H91.5823V156.178ZM86.3903 162.338H92.4073V165.671H86.3903V162.338ZM91.5933 162.998H87.1933V165H91.5933V162.998ZM96.6155 156.926C97.4955 156.926 98.2215 157.443 98.6285 158.345H101.148V156.167H101.962V165.814H101.148V162.074H98.6835C98.2875 163.053 97.5395 163.625 96.6155 163.625C95.2185 163.625 94.2285 162.316 94.2285 160.27C94.2285 158.224 95.2185 156.926 96.6155 156.926ZM96.6155 157.663C95.6695 157.663 95.0095 158.697 95.0095 160.27C95.0095 161.843 95.6695 162.888 96.6155 162.888C97.5725 162.888 98.2325 161.843 98.2325 160.27C98.2325 158.697 97.5725 157.663 96.6155 157.663ZM98.8595 159.027C98.9585 159.401 99.0025 159.819 99.0025 160.27C99.0025 160.677 98.9585 161.051 98.8925 161.392H101.148V159.027H98.8595ZM103.365 157.168H108.546V157.861H106.39V159.159C106.39 160.688 107.512 162.404 108.887 163.053L108.414 163.713C107.336 163.174 106.423 162.03 105.994 160.743C105.554 162.14 104.586 163.383 103.519 163.944L103.035 163.295C104.377 162.624 105.587 160.798 105.587 159.159V157.861H103.365V157.168ZM109.734 156.178H110.559V160.094H112.154V160.787H110.559V165.803H109.734V156.178ZM116.879 157.069V165H116.087V157.971L114.855 158.829L114.415 158.224L116.087 157.069H116.879Z" fill="#ADB5BD"/>
<mask id="mask2_502_4217" style="mask-type:alpha" maskUnits="userSpaceOnUse" x="130" y="116" width="34" height="34">
<path d="M147 149.25C155.975 149.25 163.25 141.975 163.25 133C163.25 124.025 155.975 116.75 147 116.75C138.025 116.75 130.75 124.025 130.75 133C130.75 141.975 138.025 149.25 147 149.25Z" fill="#D9D9D9"/>
</mask>
<g mask="url(#mask2_502_4217)">
<path d="M147 149.25C155.975 149.25 163.25 141.975 163.25 133C163.25 124.025 155.975 116.75 147 116.75C138.025 116.75 130.75 124.025 130.75 133C130.75 141.975 138.025 149.25 147 149.25Z" fill="#CED4DA"/>
<path d="M147 136.75C150.452 136.75 153.25 133.952 153.25 130.5C153.25 127.048 150.452 124.25 147 124.25C143.548 124.25 140.75 127.048 140.75 130.5C140.75 133.952 143.548 136.75 147 136.75Z" fill="#F1F3F5"/>
<path d="M147 165.5C155.284 165.5 162 158.784 162 150.5C162 142.216 155.284 135.5 147 135.5C138.716 135.5 132 142.216 132 150.5C132 158.784 138.716 165.5 147 165.5Z" fill="#F1F3F5"/>
</g>
<path d="M130.209 157.322H132.376V156.134H133.19V157.322H135.346V157.993H133.19V158.169C133.19 159.368 134.158 160.424 135.555 160.842L135.17 161.502C134.07 161.15 133.212 160.413 132.794 159.478C132.387 160.512 131.485 161.304 130.352 161.678L129.956 161.029C131.364 160.589 132.376 159.467 132.376 158.169V157.993H130.209V157.322ZM136.567 156.178H137.392V158.631H138.833V159.324H137.392V161.876H136.567V156.178ZM131.375 162.338H137.392V165.671H131.375V162.338ZM136.578 162.998H132.178V165H136.578V162.998ZM141.6 156.926C142.48 156.926 143.206 157.443 143.613 158.345H146.132V156.167H146.946V165.814H146.132V162.074H143.668C143.272 163.053 142.524 163.625 141.6 163.625C140.203 163.625 139.213 162.316 139.213 160.27C139.213 158.224 140.203 156.926 141.6 156.926ZM141.6 157.663C140.654 157.663 139.994 158.697 139.994 160.27C139.994 161.843 140.654 162.888 141.6 162.888C142.557 162.888 143.217 161.843 143.217 160.27C143.217 158.697 142.557 157.663 141.6 157.663ZM143.844 159.027C143.943 159.401 143.987 159.819 143.987 160.27C143.987 160.677 143.943 161.051 143.877 161.392H146.132V159.027H143.844ZM148.35 157.168H153.531V157.861H151.375V159.159C151.375 160.688 152.497 162.404 153.872 163.053L153.399 163.713C152.321 163.174 151.408 162.03 150.979 160.743C150.539 162.14 149.571 163.383 148.504 163.944L148.02 163.295C149.362 162.624 150.572 160.798 150.572 159.159V157.861H148.35V157.168ZM154.719 156.178H155.544V160.094H157.139V160.787H155.544V165.803H154.719V156.178ZM159.521 164.307C161.094 162.778 163.481 160.853 163.481 159.412C163.481 158.389 162.832 157.663 161.897 157.663C161.226 157.663 160.533 158.169 160.214 158.895L159.488 158.587C159.906 157.63 160.907 156.959 161.897 156.959C163.294 156.959 164.273 157.971 164.273 159.412C164.273 161.084 162.139 162.877 160.599 164.307H164.405V165.011H159.631L159.521 164.307Z" fill="#ADB5BD"/>
<mask id="mask3_502_4217" style="mask-type:alpha" maskUnits="userSpaceOnUse" x="176" y="116" width="34" height="34">
<path d="M193 149.25C201.975 149.25 209.25 141.975 209.25 133C209.25 124.025 201.975 116.75 193 116.75C184.025 116.75 176.75 124.025 176.75 133C176.75 141.975 184.025 149.25 193 149.25Z" fill="#D9D9D9"/>
</mask>
<g mask="url(#mask3_502_4217)">
<path d="M193 149.25C201.975 149.25 209.25 141.975 209.25 133C209.25 124.025 201.975 116.75 193 116.75C184.025 116.75 176.75 124.025 176.75 133C176.75 141.975 184.025 149.25 193 149.25Z" fill="#CED4DA"/>
<path d="M193 136.75C196.452 136.75 199.25 133.952 199.25 130.5C199.25 127.048 196.452 124.25 193 124.25C189.548 124.25 186.75 127.048 186.75 130.5C186.75 133.952 189.548 136.75 193 136.75Z" fill="#F1F3F5"/>
<path d="M193 165.5C201.284 165.5 208 158.784 208 150.5C208 142.216 201.284 135.5 193 135.5C184.716 135.5 178 142.216 178 150.5C178 158.784 184.716 165.5 193 165.5Z" fill="#F1F3F5"/>
</g>
<path d="M175.862 157.322H178.029V156.134H178.843V157.322H180.999V157.993H178.843V158.169C178.843 159.368 179.811 160.424 181.208 160.842L180.823 161.502C179.723 161.15 178.865 160.413 178.447 159.478C178.04 160.512 177.138 161.304 176.005 161.678L175.609 161.029C177.017 160.589 178.029 159.467 178.029 158.169V157.993H175.862V157.322ZM182.22 156.178H183.045V158.631H184.486V159.324H183.045V161.876H182.22V156.178ZM177.028 162.338H183.045V165.671H177.028V162.338ZM182.231 162.998H177.831V165H182.231V162.998ZM187.254 156.926C188.134 156.926 188.86 157.443 189.267 158.345H191.786V156.167H192.6V165.814H191.786V162.074H189.322C188.926 163.053 188.178 163.625 187.254 163.625C185.857 163.625 184.867 162.316 184.867 160.27C184.867 158.224 185.857 156.926 187.254 156.926ZM187.254 157.663C186.308 157.663 185.648 158.697 185.648 160.27C185.648 161.843 186.308 162.888 187.254 162.888C188.211 162.888 188.871 161.843 188.871 160.27C188.871 158.697 188.211 157.663 187.254 157.663ZM189.498 159.027C189.597 159.401 189.641 159.819 189.641 160.27C189.641 160.677 189.597 161.051 189.531 161.392H191.786V159.027H189.498ZM194.003 157.168H199.184V157.861H197.028V159.159C197.028 160.688 198.15 162.404 199.525 163.053L199.052 163.713C197.974 163.174 197.061 162.03 196.632 160.743C196.192 162.14 195.224 163.383 194.157 163.944L193.673 163.295C195.015 162.624 196.225 160.798 196.225 159.159V157.861H194.003V157.168ZM200.372 156.178H201.197V160.094H202.792V160.787H201.197V165.803H200.372V156.178ZM209.156 160.897C209.86 161.326 210.245 162.096 210.245 162.756C210.245 164.109 209.189 165.066 207.682 165.066C206.186 165.066 205.13 164.109 205.13 162.756H205.922C205.922 163.702 206.648 164.362 207.682 164.362C208.727 164.362 209.453 163.702 209.453 162.767C209.453 161.876 208.727 161.249 207.704 161.249H207.121V160.523H207.704C208.661 160.523 209.343 159.951 209.343 159.137C209.343 158.29 208.683 157.696 207.748 157.696C206.802 157.696 206.142 158.301 206.142 159.159H205.35C205.35 157.883 206.34 156.992 207.748 156.992C209.145 156.992 210.135 157.883 210.135 159.159C210.135 159.753 209.794 160.468 209.156 160.897Z" fill="#ADB5BD"/>
<defs>
<linearGradient id="paint0_linear_502_4217" x1="116" y1="0" x2="116" y2="210" gradientUnits="userSpaceOnUse">
<stop stop-color="#212529"/>
<stop offset="1" stop-color="#060D24"/>
</linearGradient>
</defs>
</svg>
