<svg width="232" height="211" viewBox="0 0 232 211" fill="none" xmlns="http://www.w3.org/2000/svg">
<path d="M0 16.5C0 7.66344 7.16344 0.5 16 0.5H216C224.837 0.5 232 7.66344 232 16.5V194.5C232 203.337 224.837 210.5 216 210.5H16C7.16344 210.5 0 203.337 0 194.5V16.5Z" fill="url(#paint0_linear_502_4563)"/>
<path d="M29 46.5C29 42.0817 32.5817 38.5 37 38.5H195C199.418 38.5 203 42.0817 203 46.5V70.5C203 74.9183 199.418 78.5 195 78.5H37C32.5817 78.5 29 74.9183 29 70.5V46.5Z" fill="#243348"/>
<path d="M46.523 55.31L47.419 52.65H48.301L47.839 55.31H46.523ZM49.5435 53.616H52.2035V52.188H53.4915V53.616H56.1515V54.652H53.4915V54.778C53.4915 56.22 54.6115 57.564 56.4735 58.096L55.8715 59.104C54.4575 58.684 53.4215 57.788 52.8755 56.668C52.3435 57.9 51.2515 58.866 49.8095 59.328L49.1935 58.32C51.0555 57.76 52.2035 56.346 52.2035 54.778V54.652H49.5435V53.616ZM51.0135 64.41V60.084H58.8255V64.41H51.0135ZM52.2735 63.388H57.5515V61.106H52.2735V63.388ZM57.5375 59.524V52.23H58.8255V55.282H60.5895V56.374H58.8255V59.524H57.5375ZM64.2758 53.154C65.3958 53.154 66.3198 53.798 66.8658 54.918H69.8898V52.202H71.1778V64.606H69.8898V59.86H66.9498C66.4178 61.092 65.4518 61.82 64.2758 61.82C62.4698 61.82 61.1678 60.126 61.1678 57.48C61.1678 54.82 62.4698 53.154 64.2758 53.154ZM62.3858 57.48C62.3858 59.454 63.1558 60.672 64.2758 60.672C65.3818 60.672 66.1518 59.454 66.1518 57.48C66.1518 55.52 65.3818 54.316 64.2758 54.316C63.1558 54.316 62.3858 55.52 62.3858 57.48ZM67.2298 55.968C67.3278 56.43 67.3838 56.934 67.3838 57.48C67.3838 57.956 67.3418 58.404 67.2578 58.81H69.8898V55.968H67.2298ZM72.9181 53.462H79.5961V54.54H76.9361V55.884C76.9361 57.83 78.2241 60.014 80.0721 60.896L79.3441 61.918C77.9721 61.246 76.8661 59.846 76.3201 58.222C75.7601 59.972 74.6121 61.512 73.2121 62.226L72.4561 61.204C74.2901 60.308 75.6621 57.984 75.6621 55.884V54.54H72.9181V53.462ZM80.9261 64.592V52.23H82.2141V57.144H84.1741V58.222H82.2141V64.592H80.9261ZM84.7104 62.044C86.6984 60.084 89.5544 58.306 89.5544 56.542C89.5544 55.352 88.7004 54.694 87.7064 54.694C86.9924 54.694 86.1944 54.946 85.7044 56.08L84.5564 55.576C85.3124 53.882 86.7544 53.462 87.7064 53.462C89.2044 53.462 90.7864 54.652 90.7864 56.542C90.7864 58.614 88.4344 60.406 86.5584 62.044H90.9404V63.276H84.6964V62.044H84.7104ZM93.7694 52.664L92.8874 55.31H91.9914L92.4674 52.664H93.7694ZM103.804 52.216H105.092V59.202H103.804V52.216ZM95.6978 58.348V52.944H96.9718V57.284C98.9458 57.27 100.71 57.13 102.544 56.724L102.726 57.802C100.724 58.222 98.8758 58.348 96.7058 58.348H95.6978ZM97.0558 64.41V59.776H105.092V64.41H97.0558ZM98.3298 63.388H103.832V60.798H98.3298V63.388ZM118.253 52.202H119.555V64.606H118.253V52.202ZM109.839 57.48C109.839 54.82 111.169 53.154 113.003 53.154C114.837 53.154 116.181 54.82 116.181 57.48C116.181 60.126 114.837 61.82 113.003 61.82C111.169 61.82 109.839 60.126 109.839 57.48ZM111.085 57.48C111.085 59.454 111.869 60.672 113.003 60.672C114.151 60.672 114.935 59.454 114.935 57.48C114.935 55.52 114.151 54.316 113.003 54.316C111.869 54.316 111.085 55.52 111.085 57.48ZM124.473 53.154C126.139 53.154 127.371 54.568 127.553 56.878H130.087V52.202H131.375V64.606H130.087V57.914H127.567C127.441 60.308 126.181 61.82 124.473 61.82C122.667 61.82 121.365 60.126 121.365 57.48C121.365 54.82 122.667 53.154 124.473 53.154ZM122.583 57.48C122.583 59.454 123.353 60.672 124.473 60.672C125.579 60.672 126.335 59.454 126.335 57.48C126.335 55.52 125.579 54.316 124.473 54.316C123.353 54.316 122.583 55.52 122.583 57.48ZM141.123 52.202H142.411V57.158H144.329V58.236H142.411V64.578H141.123V52.202ZM132.905 61.288C135.971 59.734 137.651 57.466 137.903 54.582H133.493V53.532H139.205C139.205 57.102 137.637 60.266 133.619 62.282L132.905 61.288ZM147.34 59.188H158.512V60.252H153.528V64.578H152.254V60.252H147.34V59.188ZM147.97 57.228C150.266 56.906 152.184 55.52 152.212 53.98H148.362V52.958H157.448V53.98H153.64C153.668 55.52 155.586 56.906 157.882 57.228L157.406 58.25C155.418 57.928 153.682 56.92 152.926 55.506C152.184 56.92 150.434 57.928 148.46 58.25L147.97 57.228ZM163.949 56.584H165.867V52.482H167.071V63.976H165.867V57.634H163.949V56.584ZM158.923 61.008C160.659 59.972 161.569 57.774 161.569 55.66V53.364H162.829V55.604C162.829 57.578 163.655 59.692 165.279 60.7L164.565 61.708C163.417 61.008 162.633 59.762 162.213 58.32C161.765 59.888 160.925 61.232 159.735 61.974L158.923 61.008ZM168.387 64.578V52.216H169.619V64.578H168.387ZM170.813 61.988H173.487V58.726C172.479 58.166 171.877 57.284 171.877 56.192C171.877 54.232 173.767 52.972 176.385 52.972C179.031 52.972 180.921 54.232 180.921 56.192C180.921 57.284 180.319 58.166 179.311 58.726V61.988H181.999V63.052H170.813V61.988ZM173.123 56.192C173.123 57.522 174.481 58.376 176.385 58.376C178.303 58.376 179.647 57.522 179.647 56.192C179.647 54.848 178.303 53.98 176.385 53.98C174.481 53.98 173.123 54.848 173.123 56.192ZM174.761 61.988H178.037V59.202C177.533 59.314 176.973 59.384 176.385 59.384C175.797 59.384 175.251 59.328 174.761 59.202V61.988ZM185.111 53.168L184.915 60.938H183.767L183.543 53.168H185.111ZM183.599 62.856C183.599 62.45 183.865 62.128 184.341 62.128C184.803 62.128 185.069 62.45 185.069 62.856C185.069 63.276 184.803 63.598 184.341 63.598C183.865 63.598 183.599 63.276 183.599 62.856Z" fill="#F1F3F5"/>
<mask id="mask0_502_4563" style="mask-type:alpha" maskUnits="userSpaceOnUse" x="39" y="113" width="33" height="34">
<path d="M55.5 146.5C64.6127 146.5 72 139.113 72 130C72 120.887 64.6127 113.5 55.5 113.5C46.3873 113.5 39 120.887 39 130C39 139.113 46.3873 146.5 55.5 146.5Z" fill="#D9D9D9"/>
</mask>
<g mask="url(#mask0_502_4563)">
<path d="M55.5 146C54.7913 146 54.0936 145.954 53.4096 145.865L53.3449 146.361C51.8898 146.171 50.4943 145.791 49.184 145.248L49.3755 144.786C48.075 144.247 46.8609 143.541 45.7597 142.695L45.4551 143.091C44.312 142.213 43.2873 141.188 42.4089 140.045L42.8054 139.74C41.9592 138.639 41.2532 137.425 40.7139 136.124L40.252 136.316C39.7087 135.006 39.3293 133.61 39.1395 132.155L39.6353 132.09C39.546 131.406 39.5 130.709 39.5 130C39.5 129.291 39.546 128.594 39.6353 127.91L39.1395 127.845C39.3293 126.39 39.7087 124.994 40.252 123.684L40.7139 123.876C41.2532 122.575 41.9592 121.361 42.8054 120.26L42.4089 119.955C43.2873 118.812 44.312 117.787 45.4551 116.909L45.7597 117.305C46.8609 116.459 48.075 115.753 49.3755 115.214L49.184 114.752C50.4943 114.209 51.8898 113.829 53.3449 113.639L53.4096 114.135C54.0936 114.046 54.7913 114 55.5 114C56.2087 114 56.9064 114.046 57.5904 114.135L57.6551 113.639C59.1102 113.829 60.5057 114.209 61.816 114.752L61.6245 115.214C62.925 115.753 64.1391 116.459 65.2403 117.305L65.5449 116.909C66.688 117.787 67.7127 118.812 68.5911 119.955L68.1946 120.26C69.0408 121.361 69.7468 122.575 70.2861 123.876L70.748 123.684C71.2913 124.994 71.6707 126.39 71.8605 127.845L71.3647 127.91C71.454 128.594 71.5 129.291 71.5 130C71.5 130.709 71.454 131.406 71.3647 132.09L71.8605 132.155C71.6707 133.61 71.2913 135.006 70.748 136.316L70.2861 136.124C69.7468 137.425 69.0408 138.639 68.1946 139.74L68.5911 140.045C67.7127 141.188 66.688 142.213 65.5449 143.091L65.2403 142.695C64.1391 143.541 62.925 144.247 61.6245 144.786L61.816 145.248C60.5057 145.791 59.1102 146.171 57.6551 146.361L57.5904 145.865C56.9064 145.954 56.2087 146 55.5 146Z" stroke="#868E96" stroke-linejoin="round" stroke-dasharray="4 4"/>
</g>
<path d="M46.8237 153.503H51.8287V154.317H47.8357V155.362H51.6197V156.154H47.8357V157.243H51.8617V158.057H49.7827V159.531C50.6627 159.487 51.5537 159.41 52.3897 159.278L52.4667 160.037C50.3107 160.444 47.9567 160.455 46.2297 160.455L46.1087 159.608C46.8897 159.608 47.8027 159.608 48.7707 159.575V158.057H46.8237V153.503ZM52.9947 162.369V152.623H54.0067V162.369H52.9947ZM55.377 153.338H60.591V154.163H58.512V154.427C58.512 155.67 59.37 156.803 60.822 157.265L60.327 158.057C59.238 157.705 58.446 156.979 58.028 156.044C57.61 157.111 56.763 157.958 55.619 158.365L55.091 157.551C56.587 157.045 57.5 155.791 57.5 154.438V154.163H55.377V153.338ZM56.389 160.521C56.389 159.377 57.61 158.706 59.601 158.706C61.581 158.706 62.813 159.377 62.813 160.521C62.813 161.654 61.581 162.336 59.601 162.336C57.61 162.336 56.389 161.654 56.389 160.521ZM57.379 160.521C57.379 161.159 58.215 161.533 59.601 161.533C60.987 161.533 61.812 161.159 61.812 160.521C61.812 159.861 60.987 159.509 59.601 159.509C58.215 159.509 57.379 159.861 57.379 160.521ZM61.702 158.464V152.645H62.725V155.043H64.111V155.89H62.725V158.464H61.702Z" fill="#868E96"/>
<mask id="mask1_502_4563" style="mask-type:alpha" maskUnits="userSpaceOnUse" x="95" y="107" width="42" height="41">
<path d="M116 147.812C127.218 147.812 136.312 138.718 136.312 127.5C136.312 116.282 127.218 107.188 116 107.188C104.782 107.188 95.6875 116.282 95.6875 127.5C95.6875 138.718 104.782 147.812 116 147.812Z" fill="#D9D9D9"/>
</mask>
<g mask="url(#mask1_502_4563)">
<path d="M116 147.812C127.218 147.812 136.312 138.718 136.312 127.5C136.312 116.282 127.218 107.188 116 107.188C104.782 107.188 95.6875 116.282 95.6875 127.5C95.6875 138.718 104.782 147.812 116 147.812Z" fill="#4DB4FF"/>
<path d="M116 132.187C120.315 132.187 123.812 128.69 123.812 124.375C123.812 120.06 120.315 116.562 116 116.562C111.685 116.562 108.188 120.06 108.188 124.375C108.188 128.69 111.685 132.187 116 132.187Z" fill="#D3EDFF"/>
<path d="M116 168.125C126.355 168.125 134.75 159.73 134.75 149.375C134.75 139.02 126.355 130.625 116 130.625C105.645 130.625 97.25 139.02 97.25 149.375C97.25 159.73 105.645 168.125 116 168.125Z" fill="#D3EDFF"/>
</g>
<path d="M93.8172 157.392H96.3092V156.09H98.0452V157.392H100.551V158.75H98.0452C98.0732 160.038 98.9832 161.312 100.943 161.83L100.173 163.202C98.7452 162.824 97.7652 162.012 97.2052 160.99C96.6592 162.11 95.6512 162.978 94.1952 163.398L93.3832 162.054C95.3712 161.508 96.2812 160.15 96.3092 158.75H93.8172V157.392ZM95.2032 168.536V164.014H103.323V168.536H95.2032ZM96.9112 167.164H101.629V165.372H96.9112V167.164ZM101.587 163.482V156.132H103.323V159.072H105.003V160.528H103.323V163.482H101.587ZM108.648 157C109.768 157 110.706 157.616 111.28 158.708H113.996V156.104H115.732V168.704H113.996V164.014H111.392C110.832 165.246 109.838 165.96 108.648 165.96C106.772 165.96 105.414 164.224 105.414 161.466C105.414 158.722 106.772 157 108.648 157ZM107.052 161.466C107.052 163.356 107.71 164.378 108.648 164.378C109.572 164.378 110.216 163.356 110.216 161.466C110.216 159.59 109.572 158.582 108.648 158.582C107.71 158.582 107.052 159.59 107.052 161.466ZM111.756 160.108C111.84 160.528 111.882 160.976 111.882 161.466C111.882 161.872 111.854 162.25 111.798 162.6H113.996V160.108H111.756ZM117.164 157.336H124.024V158.764H121.518V159.562C121.518 161.466 122.54 163.692 124.584 164.63L123.618 166.016C122.232 165.358 121.238 164.084 120.664 162.572C120.118 164.224 119.096 165.638 117.654 166.324L116.674 164.952C118.718 163.986 119.782 161.634 119.782 159.562V158.764H117.164V157.336ZM125.004 168.69V156.132H126.754V160.934H128.588V162.376H126.754V168.69H125.004ZM131.837 165.694H131.851C133.881 163.734 136.541 162.278 136.541 160.612C136.541 159.59 135.771 159.016 134.903 159.016C134.301 159.016 133.559 159.24 133.097 160.262L131.557 159.562C132.355 157.784 133.993 157.336 134.903 157.336C136.471 157.336 138.221 158.666 138.221 160.612C138.221 162.684 136.205 164.252 134.427 165.694H138.361V167.374H131.837V165.694Z" fill="white"/>
<mask id="mask2_502_4563" style="mask-type:alpha" maskUnits="userSpaceOnUse" x="160" y="113" width="34" height="33">
<path d="M177 145.75C185.975 145.75 193.25 138.475 193.25 129.5C193.25 120.525 185.975 113.25 177 113.25C168.026 113.25 160.75 120.525 160.75 129.5C160.75 138.475 168.026 145.75 177 145.75Z" fill="#D9D9D9"/>
</mask>
<g mask="url(#mask2_502_4563)">
<path d="M177 145.75C185.975 145.75 193.25 138.475 193.25 129.5C193.25 120.525 185.975 113.25 177 113.25C168.026 113.25 160.75 120.525 160.75 129.5C160.75 138.475 168.026 145.75 177 145.75Z" fill="#CED4DA"/>
<path d="M177 133.25C180.452 133.25 183.25 130.452 183.25 127C183.25 123.548 180.452 120.75 177 120.75C173.549 120.75 170.75 123.548 170.75 127C170.75 130.452 173.549 133.25 177 133.25Z" fill="#F1F3F5"/>
<path d="M177 162C185.285 162 192 155.284 192 147C192 138.716 185.285 132 177 132C168.716 132 162 138.716 162 147C162 155.284 168.716 162 177 162Z" fill="#F1F3F5"/>
</g>
<path d="M160.112 153.822H162.279V152.634H163.093V153.822H165.249V154.493H163.093V154.669C163.093 155.868 164.061 156.924 165.458 157.342L165.073 158.002C163.973 157.65 163.115 156.913 162.697 155.978C162.29 157.012 161.388 157.804 160.255 158.178L159.859 157.529C161.267 157.089 162.279 155.967 162.279 154.669V154.493H160.112V153.822ZM166.47 152.678H167.295V155.131H168.736V155.824H167.295V158.376H166.47V152.678ZM161.278 158.838H167.295V162.171H161.278V158.838ZM166.481 159.498H162.081V161.5H166.481V159.498ZM171.504 153.426C172.384 153.426 173.11 153.943 173.517 154.845H176.036V152.667H176.85V162.314H176.036V158.574H173.572C173.176 159.553 172.428 160.125 171.504 160.125C170.107 160.125 169.117 158.816 169.117 156.77C169.117 154.724 170.107 153.426 171.504 153.426ZM171.504 154.163C170.558 154.163 169.898 155.197 169.898 156.77C169.898 158.343 170.558 159.388 171.504 159.388C172.461 159.388 173.121 158.343 173.121 156.77C173.121 155.197 172.461 154.163 171.504 154.163ZM173.748 155.527C173.847 155.901 173.891 156.319 173.891 156.77C173.891 157.177 173.847 157.551 173.781 157.892H176.036V155.527H173.748ZM178.253 153.668H183.434V154.361H181.278V155.659C181.278 157.188 182.4 158.904 183.775 159.553L183.302 160.213C182.224 159.674 181.311 158.53 180.882 157.243C180.442 158.64 179.474 159.883 178.407 160.444L177.923 159.795C179.265 159.124 180.475 157.298 180.475 155.659V154.361H178.253V153.668ZM184.622 152.678H185.447V156.594H187.042V157.287H185.447V162.303H184.622V152.678ZM193.406 157.397C194.11 157.826 194.495 158.596 194.495 159.256C194.495 160.609 193.439 161.566 191.932 161.566C190.436 161.566 189.38 160.609 189.38 159.256H190.172C190.172 160.202 190.898 160.862 191.932 160.862C192.977 160.862 193.703 160.202 193.703 159.267C193.703 158.376 192.977 157.749 191.954 157.749H191.371V157.023H191.954C192.911 157.023 193.593 156.451 193.593 155.637C193.593 154.79 192.933 154.196 191.998 154.196C191.052 154.196 190.392 154.801 190.392 155.659H189.6C189.6 154.383 190.59 153.492 191.998 153.492C193.395 153.492 194.385 154.383 194.385 155.659C194.385 156.253 194.044 156.968 193.406 157.397Z" fill="#ADB5BD"/>
<defs>
<linearGradient id="paint0_linear_502_4563" x1="116" y1="0.5" x2="116" y2="210.5" gradientUnits="userSpaceOnUse">
<stop stop-color="#212529"/>
<stop offset="1" stop-color="#060D24"/>
</linearGradient>
</defs>
</svg>
