<svg width="232" height="211" viewBox="0 0 232 211" fill="none" xmlns="http://www.w3.org/2000/svg">
<path d="M0 16.5C0 7.66344 7.16344 0.5 16 0.5H216C224.837 0.5 232 7.66344 232 16.5V194.5C232 203.337 224.837 210.5 216 210.5H16C7.16344 210.5 0 203.337 0 194.5V16.5Z" fill="url(#paint0_linear_502_4471)"/>
<path d="M29 42.5C29 38.0817 32.5817 34.5 37 34.5H195C199.418 34.5 203 38.0817 203 42.5V90.5C203 94.9183 199.418 98.5 195 98.5H37C32.5817 98.5 29 94.9183 29 90.5V42.5Z" fill="black" fill-opacity="0.5"/>
<path d="M53.196 48.888H54.12V56.7H53.196V53.64H51.408V52.872H53.196V51.648H51.408V50.88H53.196V48.888ZM45.528 54.312L46.872 54.3V50.496H45.804V49.728H51.336V50.496H50.268V54.18C50.748 54.156 51.228 54.108 51.672 54.06L51.732 54.744C49.704 55.068 47.328 55.092 45.624 55.092L45.528 54.312ZM47.412 59.148V56.064H48.324V58.392H54.396V59.148H47.412ZM47.748 54.288C48.288 54.276 48.84 54.264 49.392 54.24V50.496H47.748V54.288ZM55.8283 49.956H61.6963V50.724H59.2123V52.116C59.2123 53.904 60.5083 55.716 62.0323 56.388L61.5043 57.108C60.2923 56.544 59.2483 55.32 58.7563 53.868C58.2763 55.404 57.2203 56.76 56.0203 57.372L55.4923 56.64C56.9803 55.92 58.2883 53.94 58.2883 52.116V50.724H55.8283V49.956ZM63.1483 59.4V48.876H64.0603V59.4H63.1483ZM65.4566 53.784H74.9726V54.468H65.4566V53.784ZM66.5966 56.016V55.356H73.7726V57.564H67.5086V58.584H74.1086V59.232H66.6206V56.928H72.8846V56.016H66.5966ZM66.6686 49.848V49.2H73.7486V51.36H67.5806V52.296H73.9406V52.968H66.6926V50.724H72.8486V49.848H66.6686ZM77.9505 49.62H83.5785V50.376H81.2385V50.808C81.2385 52.224 82.2585 53.496 83.7825 54.048L83.3265 54.768C82.1505 54.348 81.2385 53.484 80.7945 52.392C80.3385 53.58 79.3905 54.516 78.1665 54.96L77.6745 54.252C79.2345 53.7 80.3265 52.332 80.3265 50.82V50.376H77.9505V49.62ZM79.0425 56.52V55.764H85.8585V59.4H84.9345V56.52H79.0425ZM84.9345 55.2V48.876H85.8585V51.66H87.4185V52.44H85.8585V55.2H84.9345ZM90.3867 49.476H91.2868V50.544C91.2868 52.032 92.3428 53.352 93.8668 53.88L93.3628 54.588C92.2108 54.168 91.3108 53.316 90.8548 52.224C90.4108 53.46 89.4508 54.432 88.1908 54.912L87.7108 54.168C89.2948 53.604 90.3867 52.188 90.3867 50.568V49.476ZM89.4028 57.384C89.4028 56.136 90.7348 55.404 92.8948 55.404C95.0548 55.404 96.3748 56.136 96.3748 57.384C96.3748 58.644 95.0548 59.364 92.8948 59.364C90.7348 59.364 89.4028 58.644 89.4028 57.384ZM90.3027 57.384C90.3027 58.164 91.2868 58.632 92.8948 58.632C94.4908 58.632 95.4748 58.164 95.4748 57.384C95.4748 56.604 94.4908 56.148 92.8948 56.148C91.2868 56.148 90.3027 56.604 90.3027 57.384ZM93.1108 51.888V51.12H95.4268V48.876H96.3388V55.104H95.4268V51.888H93.1108ZM104.839 48.876H105.739V53.22H107.479V53.988H105.739V59.4H104.839V48.876ZM97.627 51.324V50.568H100.291V49.008H101.227V50.568H103.831V51.324H97.627ZM98.239 54.612C98.239 53.196 99.307 52.212 100.771 52.212C102.247 52.212 103.327 53.196 103.327 54.612C103.327 56.04 102.247 57.012 100.771 57.012C99.307 57.012 98.239 56.04 98.239 54.612ZM99.103 54.612C99.103 55.572 99.811 56.256 100.771 56.256C101.743 56.256 102.463 55.572 102.463 54.612C102.463 53.664 101.743 52.968 100.771 52.968C99.811 52.968 99.103 53.664 99.103 54.612ZM108.683 49.956H116.015V50.976C116.015 52.296 116.015 53.724 115.631 55.848L114.719 55.728C115.103 53.724 115.103 52.26 115.103 50.976V50.7H108.683V49.956ZM107.675 57.888V57.144H111.395V53.376H112.307V57.144H117.167V57.888H107.675ZM122.569 55.356H123.445V55.944C123.445 56.868 123.949 57.864 124.933 58.44C125.941 57.816 126.457 56.736 126.457 55.944V55.356H127.357V55.944C127.357 57.012 128.137 58.104 129.469 58.56L129.013 59.232C127.969 58.86 127.237 58.128 126.889 57.24C126.565 58.092 125.929 58.908 124.957 59.328C123.949 58.932 123.301 58.164 122.989 57.288C122.617 58.128 121.897 58.86 120.901 59.232L120.445 58.56C121.765 58.068 122.569 56.94 122.569 55.944V55.356ZM120.169 51.948C120.169 50.508 121.321 49.5 122.893 49.5C124.477 49.5 125.629 50.508 125.629 51.948C125.629 53.388 124.477 54.384 122.893 54.384C121.321 54.384 120.169 53.388 120.169 51.948ZM121.057 51.948C121.057 52.944 121.837 53.628 122.893 53.628C123.973 53.628 124.741 52.944 124.741 51.948C124.741 50.964 123.973 50.268 122.893 50.268C121.837 50.268 121.057 50.964 121.057 51.948ZM127.597 54.9V48.888H128.521V54.9H127.597ZM132.726 49.692C134.154 49.692 135.198 50.928 135.33 52.908H137.658V48.864H138.558V59.4H137.658V53.652H135.33C135.234 55.704 134.178 57 132.726 57C131.201 57 130.122 55.572 130.122 53.34C130.122 51.108 131.201 49.692 132.726 49.692ZM130.974 53.34C130.974 55.068 131.694 56.196 132.726 56.196C133.746 56.196 134.454 55.068 134.454 53.34C134.454 51.624 133.746 50.508 132.726 50.508C131.694 50.508 130.974 51.624 130.974 53.34ZM139.906 57.276H142.258V54.42C141.37 53.952 140.842 53.196 140.842 52.26C140.842 50.616 142.426 49.56 144.646 49.56C146.878 49.56 148.462 50.616 148.462 52.26C148.462 53.196 147.934 53.94 147.058 54.408V57.276H149.422V58.044H139.906V57.276ZM141.718 52.26C141.718 53.436 142.954 54.216 144.646 54.216C146.35 54.216 147.562 53.436 147.562 52.26C147.562 51.072 146.35 50.28 144.646 50.28C142.954 50.28 141.718 51.072 141.718 52.26ZM143.158 57.276H146.146V54.756C145.69 54.876 145.186 54.936 144.646 54.936C144.106 54.936 143.602 54.876 143.158 54.756V57.276ZM153.036 57.456C153.42 57.456 153.624 57.72 153.624 58.044C153.624 58.392 153.42 58.656 153.036 58.656C152.64 58.656 152.424 58.392 152.424 58.044C152.424 57.72 152.64 57.456 153.036 57.456ZM155.7 57.456C156.084 57.456 156.288 57.72 156.288 58.044C156.288 58.392 156.084 58.656 155.7 58.656C155.304 58.656 155.088 58.392 155.088 58.044C155.088 57.72 155.304 57.456 155.7 57.456ZM158.364 57.456C158.748 57.456 158.952 57.72 158.952 58.044C158.952 58.392 158.748 58.656 158.364 58.656C157.968 58.656 157.752 58.392 157.752 58.044C157.752 57.72 157.968 57.456 158.364 57.456Z" fill="#ADB5BD"/>
<path d="M54.5 84.7188C58.435 84.7188 61.625 81.5288 61.625 77.5938C61.625 73.6587 58.435 70.4688 54.5 70.4688C50.565 70.4688 47.375 73.6587 47.375 77.5938C47.375 81.5288 50.565 84.7188 54.5 84.7188Z" fill="#FFA256"/>
<path fill-rule="evenodd" clip-rule="evenodd" d="M52.125 71.6562C52.125 72.9679 51.0617 74.0312 49.75 74.0312C49.5206 74.0312 49.2989 73.9987 49.089 73.9381C49.8252 72.8506 50.8806 71.9968 52.1207 71.5114C52.1235 71.5593 52.125 71.6076 52.125 71.6562ZM51.7513 70.3769C50.2353 70.9547 48.9482 71.9964 48.0636 73.3286C47.6379 72.8994 47.375 72.3085 47.375 71.6562C47.375 70.3446 48.4383 69.2812 49.75 69.2812C50.5906 69.2812 51.3292 69.718 51.7513 70.3769Z" fill="#FFA256"/>
<path fill-rule="evenodd" clip-rule="evenodd" d="M56.8745 71.6562C56.8745 72.9679 57.9378 74.0312 59.2495 74.0312C59.4789 74.0312 59.7007 73.9987 59.9105 73.9381C59.1743 72.8506 58.1189 71.9968 56.8789 71.5114C56.876 71.5593 56.8745 71.6076 56.8745 71.6562ZM57.2482 70.3769C58.7643 70.9547 60.0514 71.9964 60.9359 73.3286C61.3616 72.8994 61.6245 72.3085 61.6245 71.6562C61.6245 70.3446 60.5612 69.2812 59.2495 69.2812C58.4089 69.2812 57.6703 69.718 57.2482 70.3769Z" fill="#FFA256"/>
<path d="M54.5 74.0312V77.5938H58.0625" stroke="white" stroke-width="1.19101" stroke-linecap="round" stroke-linejoin="round"/>
<path d="M68.77 81.212C70.758 79.266 73.698 77.306 73.698 75.5C73.698 74.24 72.788 73.526 71.738 73.526C70.982 73.526 70.17 73.806 69.638 74.996L68.714 74.576C69.428 72.938 70.772 72.504 71.738 72.504C73.208 72.504 74.72 73.666 74.72 75.5C74.706 77.586 72.2 79.504 70.282 81.212H74.86V82.234H68.77V81.212ZM79.3722 81.422C80.9682 81.422 81.9482 80.148 81.9482 77.446C81.9482 74.744 80.9682 73.484 79.3722 73.484C77.7622 73.484 76.7822 74.744 76.7822 77.446C76.7822 80.148 77.7622 81.422 79.3722 81.422ZM75.7742 77.446C75.7742 74.324 77.2022 72.476 79.3722 72.476C81.5282 72.476 82.9562 74.324 82.9562 77.446C82.9562 80.568 81.5282 82.43 79.3722 82.43C77.2022 82.43 75.7742 80.568 75.7742 77.446ZM83.7338 81.086H88.7458V78.272H89.7958V81.086H94.8358V81.982H83.7338V81.086ZM84.3638 77.866C86.7018 77.488 88.7458 76.06 88.7458 74.128V74.114H84.7698V73.246H88.7458V71.552H89.7958V73.246H93.7718V74.114H89.8098V74.128C89.8098 76.06 91.8678 77.488 94.1918 77.866L93.7718 78.692C91.8258 78.342 90.0478 77.362 89.2778 75.836C88.5078 77.362 86.7298 78.342 84.7698 78.692L84.3638 77.866Z" fill="#FFA256"/>
<g clip-path="url(#clip0_502_4471)">
<path d="M88.5683 144.159C70.9873 122.103 86.6928 89.5 114.899 89.5C142.964 89.5 158.712 121.818 141.417 143.921L119.873 171.455C117.46 174.539 112.8 174.56 110.359 171.498L88.5683 144.159Z" fill="#FCFFAF"/>
<rect x="85" y="92.5" width="60" height="60" rx="30" fill="#060D24"/>
<circle cx="115" cy="122.5" r="27" fill="#464444"/>
<circle cx="115" cy="122.5" r="27" fill="black" fill-opacity="0.8"/>
<g opacity="0.4">
<mask id="mask0_502_4471" style="mask-type:alpha" maskUnits="userSpaceOnUse" x="88" y="95" width="54" height="55">
<path d="M115 149.5C129.912 149.5 142 137.412 142 122.5C142 107.588 129.912 95.5 115 95.5C100.088 95.5 88 107.588 88 122.5C88 137.412 100.088 149.5 115 149.5Z" fill="#D9D9D9"/>
</mask>
<g mask="url(#mask0_502_4471)">
<path d="M115 149.5C129.912 149.5 142 137.412 142 122.5C142 107.588 129.912 95.5 115 95.5C100.088 95.5 88 107.588 88 122.5C88 137.412 100.088 149.5 115 149.5Z" fill="#CED4DA"/>
<path d="M115.5 128.5C121.299 128.5 126 123.799 126 118C126 112.201 121.299 107.5 115.5 107.5C109.701 107.5 105 112.201 105 118C105 123.799 109.701 128.5 115.5 128.5Z" fill="#E9ECEF"/>
<path d="M115 176.5C128.807 176.5 140 165.307 140 151.5C140 137.693 128.807 126.5 115 126.5C101.193 126.5 90 137.693 90 151.5C90 165.307 101.193 176.5 115 176.5Z" fill="#E9ECEF"/>
</g>
</g>
<path d="M97.9265 119.124H100.29V117.828H101.178V119.124H103.53V119.856H101.178V120.048C101.178 121.356 102.234 122.508 103.758 122.964L103.338 123.684C102.138 123.3 101.202 122.496 100.746 121.476C100.302 122.604 99.3185 123.468 98.0825 123.876L97.6505 123.168C99.1865 122.688 100.29 121.464 100.29 120.048V119.856H97.9265V119.124ZM104.862 117.876H105.762V120.552H107.334V121.308H105.762V124.092H104.862V117.876ZM99.1985 124.596H105.762V128.232H99.1985V124.596ZM104.874 125.316H100.074V127.5H104.874V125.316ZM110.399 118.692C111.359 118.692 112.151 119.256 112.595 120.24H115.343V117.864H116.231V128.388H115.343V124.308H112.655C112.223 125.376 111.407 126 110.399 126C108.875 126 107.795 124.572 107.795 122.34C107.795 120.108 108.875 118.692 110.399 118.692ZM110.399 119.496C109.367 119.496 108.647 120.624 108.647 122.34C108.647 124.056 109.367 125.196 110.399 125.196C111.443 125.196 112.163 124.056 112.163 122.34C112.163 120.624 111.443 119.496 110.399 119.496ZM112.847 120.984C112.955 121.392 113.003 121.848 113.003 122.34C113.003 122.784 112.955 123.192 112.883 123.564H115.343V120.984H112.847ZM117.807 118.956H123.459V119.712H121.107V121.128C121.107 122.796 122.331 124.668 123.831 125.376L123.315 126.096C122.139 125.508 121.143 124.26 120.675 122.856C120.195 124.38 119.139 125.736 117.975 126.348L117.447 125.64C118.911 124.908 120.231 122.916 120.231 121.128V119.712H117.807V118.956ZM124.755 117.876H125.655V122.148H127.395V122.904H125.655V128.376H124.755V117.876ZM132.641 118.848V127.5H131.777V119.832L130.433 120.768L129.953 120.108L131.777 118.848H132.641Z" fill="#F1F3F5"/>
<mask id="mask1_502_4471" style="mask-type:alpha" maskUnits="userSpaceOnUse" x="88" y="95" width="54" height="55">
<path d="M88 149.5L88 95.5L115 95.5L115 122.5L142 122.5L142 149.5L88 149.5Z" fill="#D9D9D9"/>
</mask>
<g mask="url(#mask1_502_4471)">
<path fill-rule="evenodd" clip-rule="evenodd" d="M115 149.5C129.912 149.5 142 137.412 142 122.5C142 107.588 129.912 95.5 115 95.5C100.088 95.5 88 107.588 88 122.5C88 137.412 100.088 149.5 115 149.5ZM114.5 145.5C126.926 145.5 137 135.426 137 123C137 110.574 126.926 100.5 114.5 100.5C102.074 100.5 92 110.574 92 123C92 135.426 102.074 145.5 114.5 145.5Z" fill="#F1F3F5"/>
</g>
</g>
<g filter="url(#filter0_d_502_4471)">
<path d="M173.335 150.164L168.106 140.67C167.217 139.043 165.231 138.234 163.509 138.785C162.435 139.106 161.575 139.862 161.165 140.833C161.147 140.887 161.102 140.946 161.084 141.001C160.087 139.858 158.426 139.335 156.963 139.794C155.889 140.116 155.029 140.871 154.619 141.842C154.601 141.897 154.583 141.952 154.538 142.01C153.536 140.842 151.88 140.345 150.417 140.804C149.343 141.125 148.483 141.881 148.073 142.852C148.077 142.877 148.055 142.907 148.055 142.907L143.839 135.281C142.95 133.653 140.964 132.844 139.242 133.395C138.168 133.716 137.308 134.472 136.898 135.443C136.488 136.414 136.538 137.496 137.031 138.432L147.285 157.035L143.398 155.118C140.458 153.73 137.941 153.832 135.693 155.476C135.128 155.875 134.827 156.518 134.833 157.191C134.84 157.865 135.227 158.506 135.815 158.882L151.874 169.196C155.041 171.094 158.829 171.807 162.504 171.24C163.067 171.154 163.626 171.041 164.177 170.879C168.39 169.762 171.804 167.056 173.743 163.306C175.834 159.326 175.667 154.396 173.335 150.164Z" fill="#FFD662"/>
<path d="M152 150L148 143C148.242 143 149.018 143.533 150.182 145.667C151.345 147.8 151.879 149.444 152 150Z" fill="#EBBB30"/>
<path d="M159 149L155 142C155.242 142 156.018 142.533 157.182 144.667C158.345 146.8 158.879 148.444 159 149Z" fill="#EBBB30"/>
<path d="M165 148L161 141C161.242 141 162.018 141.533 163.182 143.667C164.345 145.8 164.879 147.444 165 148Z" fill="#EBBB30"/>
</g>
<defs>
<filter id="filter0_d_502_4471" x="125.833" y="129.223" width="52.3716" height="50.2068" filterUnits="userSpaceOnUse" color-interpolation-filters="sRGB">
<feFlood flood-opacity="0" result="BackgroundImageFix"/>
<feColorMatrix in="SourceAlpha" type="matrix" values="0 0 0 0 0 0 0 0 0 0 0 0 0 0 0 0 0 0 127 0" result="hardAlpha"/>
<feOffset dx="-3" dy="2"/>
<feGaussianBlur stdDeviation="3"/>
<feComposite in2="hardAlpha" operator="out"/>
<feColorMatrix type="matrix" values="0 0 0 0 0 0 0 0 0 0 0 0 0 0 0 0 0 0 0.25 0"/>
<feBlend mode="normal" in2="BackgroundImageFix" result="effect1_dropShadow_502_4471"/>
<feBlend mode="normal" in="SourceGraphic" in2="effect1_dropShadow_502_4471" result="shape"/>
</filter>
<linearGradient id="paint0_linear_502_4471" x1="116" y1="0.5" x2="116" y2="210.5" gradientUnits="userSpaceOnUse">
<stop stop-color="#212529"/>
<stop offset="1" stop-color="#060D24"/>
</linearGradient>
<clipPath id="clip0_502_4471">
<rect width="88" height="95" fill="white" transform="translate(70 81.5)"/>
</clipPath>
</defs>
</svg>
