<svg width="24" height="24" viewBox="0 0 24 24" fill="none" xmlns="http://www.w3.org/2000/svg">
<g id="icn/20px/fill/info">
<circle id="Ellipse 390" cx="12" cy="12" r="10" fill="#1C2231"/>
<path id="Vector" d="M11.9884 17.9108C12.2889 17.9108 12.5428 17.8071 12.75 17.5997C12.9572 17.3922 13.0608 17.1381 13.0608 16.8374C13.0608 16.5368 12.957 16.283 12.7495 16.0758C12.5419 15.8688 12.2879 15.7653 11.9874 15.7653C11.6868 15.7653 11.433 15.869 11.2258 16.0766C11.0186 16.2841 10.915 16.5382 10.915 16.8387C10.915 17.1392 11.0188 17.3931 11.2263 17.6003C11.4339 17.8073 11.6879 17.9108 11.9884 17.9108ZM12.0018 22C10.6187 22 9.3186 21.7375 8.10158 21.2126C6.88456 20.6877 5.82596 19.9754 4.92579 19.0755C4.02561 18.1757 3.31289 17.1175 2.78763 15.9011C2.26254 14.6846 2 13.3848 2 12.0018C2 10.6187 2.26246 9.3186 2.78737 8.10158C3.31228 6.88456 4.02465 5.82596 4.92447 4.92579C5.8243 4.02561 6.88246 3.31289 8.09895 2.78763C9.31544 2.26254 10.6152 2 11.9982 2C13.3813 2 14.6814 2.26246 15.8984 2.78737C17.1154 3.31228 18.174 4.02465 19.0742 4.92447C19.9744 5.8243 20.6871 6.88246 21.2124 8.09895C21.7375 9.31544 22 10.6152 22 11.9982C22 13.3813 21.7375 14.6814 21.2126 15.8984C20.6877 17.1154 19.9754 18.174 19.0755 19.0742C18.1757 19.9744 17.1175 20.6871 15.9011 21.2124C14.6846 21.7375 13.3848 22 12.0018 22ZM12.0853 7.49395C12.5709 7.49395 12.9911 7.64684 13.3461 7.95263C13.7011 8.25842 13.8787 8.64061 13.8787 9.09921C13.8787 9.48518 13.7653 9.83061 13.5384 10.1355C13.3118 10.4406 13.0526 10.7247 12.7611 10.9879C12.3789 11.3268 12.0425 11.6997 11.7518 12.1066C11.4611 12.5132 11.3057 12.9662 11.2855 13.4655C11.2787 13.6573 11.3461 13.8179 11.4879 13.9474C11.6296 14.0768 11.7949 14.1416 11.9837 14.1416C12.1861 14.1416 12.3575 14.0741 12.4979 13.9392C12.6382 13.8043 12.728 13.639 12.7671 13.4434C12.8373 13.0817 12.9868 12.7595 13.2155 12.4768C13.4443 12.194 13.6921 11.9252 13.9589 11.6703C14.3426 11.2962 14.6775 10.8885 14.9634 10.4471C15.2496 10.0055 15.3926 9.51307 15.3926 8.96974C15.3926 8.1357 15.064 7.45044 14.4068 6.91395C13.7497 6.37763 12.9825 6.10947 12.1053 6.10947C11.4791 6.10947 10.8887 6.24807 10.3339 6.52526C9.77939 6.80263 9.34754 7.20719 9.03842 7.73895C8.94263 7.90228 8.91193 8.07412 8.94632 8.25447C8.98053 8.435 9.07307 8.57202 9.22395 8.66553C9.41605 8.77237 9.61333 8.8029 9.81579 8.75711C10.0182 8.71114 10.1903 8.59579 10.3318 8.41105C10.5452 8.13439 10.8033 7.91237 11.1063 7.745C11.4093 7.57763 11.7356 7.49395 12.0853 7.49395Z" fill="#99ADC9"/>
</g>
</svg>
