<svg width="24" height="24" viewBox="0 0 24 24" fill="none" xmlns="http://www.w3.org/2000/svg">
<circle cx="12" cy="12" r="10" fill="black" fill-opacity="0.06"/>
<path d="M16.0065 13C15.4516 13 15 12.5556 15 12.0065C15 11.4444 15.4516 11 16.0065 11C16.5613 11 17 11.4444 17 12.0065C17 12.5556 16.5613 13 16.0065 13Z" fill="#495057"/>
<path d="M12.0065 13C11.4516 13 11 12.5556 11 12.0065C11 11.4444 11.4516 11 12.0065 11C12.5613 11 13 11.4444 13 12.0065C13 12.5556 12.5613 13 12.0065 13Z" fill="#495057"/>
<path d="M8.00645 13C7.45161 13 7 12.5556 7 12.0065C7 11.4444 7.45161 11 8.00645 11C8.56129 11 9 11.4444 9 12.0065C9 12.5556 8.56129 13 8.00645 13Z" fill="#495057"/>
</svg>
