<svg width="14" height="12" viewBox="0 0 14 12" fill="none" xmlns="http://www.w3.org/2000/svg">
<g id="shape">
<path id="Rectangle 41957" d="M2 6.5C2 6.22386 2.22386 6 2.5 6H3.5C3.77614 6 4 6.22386 4 6.5V11.5C4 11.7761 3.77614 12 3.5 12H2.5C2.22386 12 2 11.7761 2 11.5V6.5Z" fill="#4DB4FF"/>
<circle id="Ellipse 387" cx="12" cy="6" r="2" fill="white"/>
<path id="Rectangle 41959" d="M4 3.66667C4 3.46482 4.12137 3.28276 4.30769 3.20513L11.3077 0.288462C11.637 0.151235 12 0.393211 12 0.75V11.25C12 11.6068 11.637 11.8488 11.3077 11.7115L4.30769 8.79487C4.12137 8.71724 4 8.53518 4 8.33333V3.66667Z" fill="#D3EDFF"/>
<path id="Rectangle 41958" d="M0 5C0 3.89543 0.895431 3 2 3H4.5C4.77614 3 5 3.22386 5 3.5V8.5C5 8.77614 4.77614 9 4.5 9H2C0.89543 9 0 8.10457 0 7V5Z" fill="#4DB4FF"/>
</g>
</svg>
