<svg xmlns="http://www.w3.org/2000/svg" width="15" height="16" viewBox="0 0 15 16" fill="none">
  <path d="M6.31713 8.57716L9 5L9.47663 5.23832C9.75144 5.37572 9.83847 5.72614 9.65989 5.97615L7.5 9L9.91356 10.4481C9.94902 10.4694 9.9448 10.5221 9.90641 10.5374L7.5 11.5C7.5 11.5 6.97631 13.3284 6 14.5C6.97631 12.7426 7.5 10 7.5 10L6.43978 9.29319C6.20095 9.13396 6.1449 8.8068 6.31713 8.57716Z" fill="#D3EDFF"/>
  <path d="M6 14.5C6.97631 12.7426 7.5 10 7.5 10L6.43978 9.29319C6.20095 9.13396 6.1449 8.8068 6.31713 8.57716L9 5L9.47663 5.23832C9.75144 5.37572 9.83847 5.72614 9.65989 5.97615L7.5 9L9.91356 10.4481C9.94902 10.4694 9.9448 10.5221 9.90641 10.5374L7.5 11.5C7.5 11.5 6.97631 13.3284 6 14.5ZM6 14.5C6.78105 14.5 8 14.5 8 14.5" stroke="#D3EDFF" stroke-width="1.7" stroke-linecap="round"/>
  <path d="M5 5L5.9534 2.6165C5.97726 2.55686 6.05035 2.53486 6.10317 2.57142L12.3968 6.92858C12.4496 6.96514 12.5227 6.94314 12.5466 6.8835L13.5 4.5" stroke="#D3EDFF" stroke-width="1.7" stroke-linecap="round"/>
  <circle cx="10.5" cy="2" r="1" fill="#D3EDFF" stroke="#D3EDFF"/>
  <path d="M3 11L7 11" stroke="#D3EDFF" stroke-width="1.5" stroke-linecap="round"/>
  <path d="M1 8L7 8" stroke="#D3EDFF" stroke-width="1.5" stroke-linecap="round"/>
</svg>