<svg width="16" height="16" viewBox="0 0 16 16" fill="none" xmlns="http://www.w3.org/2000/svg">
<g id="shape">
<g id="Group 203">
<path id="Vector 310" d="M1 12.3138C1 14.2605 2.4 14.9157 3.1 15H15V2.43341H5.97M1 12.3138C1 10.367 1 5.16102 1 2.80135C1.105 2.2009 1.756 1 3.52 1C5.284 1 5.88833 2.2009 5.97 2.80135V2.43341M1 12.3138C1.18667 11.7239 1.952 10.544 3.52 10.544C5.088 10.544 5.80667 11.7239 5.97 12.3138V2.43341" stroke="#868E96" stroke-width="1.3125" stroke-linejoin="round"/>
<path id="Vector 311" d="M15.0003 10L13.1866 7.85714L10.9194 10L7.74527 7L6.12986 8.5" stroke="#868E96" stroke-width="1.3125" stroke-linecap="round" stroke-linejoin="round"/>
<path id="Ellipse 391" d="M11.2308 6.65613C11.844 6.65613 12.4256 6.18341 12.4256 5.49988C12.4256 4.81635 11.844 4.34363 11.2308 4.34363C10.6177 4.34363 10.0361 4.81635 10.0361 5.49988C10.0361 6.18341 10.6177 6.65613 11.2308 6.65613Z" stroke="#868E96" stroke-width="1.3125"/>
</g>
</g>
</svg>
