<svg width="41" height="40" viewBox="0 0 41 40" fill="none" xmlns="http://www.w3.org/2000/svg">
<circle cx="20.5" cy="20" r="19.5" fill="#F8F9FA" stroke="#CED4DA" stroke-dasharray="4 4"/>
<path d="M19.4997 21H12.833C12.5497 21 12.3122 20.9042 12.1207 20.7124C11.9289 20.5206 11.833 20.283 11.833 19.9997C11.833 19.7162 11.9289 19.4787 12.1207 19.2874C12.3122 19.0958 12.5497 19 12.833 19H19.4997V12.3334C19.4997 12.05 19.5956 11.8126 19.7873 11.621C19.9791 11.4293 20.2167 11.3334 20.5 11.3334C20.7836 11.3334 21.021 11.4293 21.2123 11.621C21.4039 11.8126 21.4997 12.05 21.4997 12.3334V19H28.1663C28.4497 19 28.6871 19.0959 28.8787 19.2877C29.0705 19.4795 29.1663 19.717 29.1663 20.0004C29.1663 20.2839 29.0705 20.5214 28.8787 20.7127C28.6871 20.9043 28.4497 21 28.1663 21H21.4997V27.6667C21.4997 27.95 21.4038 28.1875 21.212 28.379C21.0202 28.5708 20.7827 28.6667 20.4993 28.6667C20.2158 28.6667 19.9783 28.5708 19.787 28.379C19.5955 28.1875 19.4997 27.95 19.4997 27.6667V21Z" fill="#868E96"/>
</svg>
