<svg width="104" height="56" viewBox="0 0 104 56" fill="none" xmlns="http://www.w3.org/2000/svg">
<path d="M0 8C0 3.58172 3.58172 0 8 0H96C100.418 0 104 3.58172 104 8V40C104 44.4183 100.418 48 96 48H8C3.58172 48 0 44.4183 0 40V8Z" fill="black" fill-opacity="0.8"/>
<path d="M28.09 16.249H28.926V18.042C29.85 17.987 30.785 17.91 31.665 17.778L31.731 18.394C29.564 18.812 27.199 18.812 25.472 18.823L25.362 18.108C26.165 18.108 27.1 18.108 28.09 18.075V16.249ZM25.67 15.93C27.067 15.501 28.068 14.445 28.09 13.125H25.89V12.454H28.09V11.255H28.926V12.454H31.17V13.125H28.926C28.948 14.379 29.971 15.413 31.379 15.82L30.994 16.469C29.861 16.128 28.948 15.391 28.519 14.412C28.101 15.446 27.21 16.216 26.055 16.59L25.67 15.93ZM32.303 20.825V11.167H33.139V20.825H32.303ZM41.7802 11.167H42.5832V20.814H41.7802V15.754H40.3722V20.308H39.5912V11.398H40.3722V15.05H41.7802V11.167ZM34.7732 18.416V12.366H38.3482V13.037H35.5982V17.712C36.9072 17.712 37.8312 17.668 38.8872 17.426L38.9752 18.13C37.8202 18.372 36.8522 18.416 35.4002 18.416H34.7732ZM50.0586 12.179V17.184H51.2356V17.943H50.0586V19.879H49.2886V17.943H45.6806V17.184L49.2886 12.179H50.0586ZM46.6266 17.184H49.2886V13.477L46.6266 17.184ZM58.8143 11.178H59.6503V16.887H58.8143V15.347H56.5703V16.183H52.1923V11.904H56.5703V12.751H58.8143V11.178ZM53.0063 15.512H55.7563V12.586H53.0063V15.512ZM53.3033 18.977C53.3033 17.833 54.5133 17.162 56.5043 17.162C58.4733 17.162 59.6943 17.833 59.6943 18.977C59.6943 20.132 58.4733 20.792 56.5043 20.792C54.5133 20.792 53.3033 20.132 53.3033 18.977ZM54.1173 18.977C54.1173 19.692 55.0193 20.121 56.5043 20.121C57.9673 20.121 58.8583 19.692 58.8583 18.977C58.8583 18.262 57.9673 17.833 56.5043 17.833C55.0193 17.833 54.1173 18.262 54.1173 18.977ZM56.5703 14.665H58.8143V13.444H56.5703V14.665ZM67.5655 11.167H68.4015V15.16H69.8645V15.875H68.4015V20.814H67.5655V11.167ZM60.8115 18.152C62.2745 16.656 62.8575 14.852 62.9565 12.916H61.1195V12.223H63.7485C63.7485 14.511 63.2315 16.788 61.4935 18.625L60.8115 18.152ZM63.5615 18.812C65.0685 17.096 65.5195 14.929 65.5855 12.916H64.0455V12.223H66.3665C66.3665 14.511 66.0255 17.173 64.2435 19.274L63.5615 18.812ZM70.2998 12.168H75.6788V12.872H73.4018V14.148C73.4018 15.787 74.5898 17.448 75.9868 18.064L75.5028 18.724C74.3918 18.207 73.4348 17.085 72.9838 15.754C72.5438 17.162 71.5758 18.405 70.4758 18.966L69.9918 18.295C71.3558 17.635 72.5548 15.82 72.5548 14.148V12.872H70.2998V12.168ZM77.0098 20.825V11.178H77.8458V20.825H77.0098ZM18.2549 34.889H22.1929V32.678H23.0179V34.889H26.9779V35.593H18.2549V34.889ZM18.7499 32.359C20.5869 32.062 22.1929 30.94 22.1929 29.422V29.411H19.0689V28.729H22.1929V27.398H23.0179V28.729H26.1419V29.411H23.0289V29.422C23.0289 30.94 24.6459 32.062 26.4719 32.359L26.1419 33.008C24.6129 32.733 23.2159 31.963 22.6109 30.764C22.0059 31.963 20.6089 32.733 19.0689 33.008L18.7499 32.359ZM34.7392 27.167H35.5422V36.814H34.7392V31.754H33.3312V36.308H32.5502V27.398H33.3312V31.05H34.7392V27.167ZM27.7322 34.416V28.366H31.3072V29.037H28.5572V33.712C29.8662 33.712 30.7902 33.668 31.8462 33.426L31.9342 34.13C30.7792 34.372 29.8112 34.416 28.3592 34.416H27.7322ZM43.1055 27.156H43.9415V29.488H45.3825V30.181H43.9415V32.48H43.1055V27.156ZM36.5165 28.718V28.058H38.9255V27.079H39.7725V28.058H42.2035V28.718H36.5165ZM37.0445 30.742C37.0445 29.774 37.9575 29.158 39.3545 29.158C40.7405 29.158 41.6535 29.774 41.6535 30.742C41.6535 31.721 40.7405 32.315 39.3545 32.315C37.9575 32.315 37.0445 31.721 37.0445 30.742ZM37.8475 33.613V32.975H43.9415V35.098H38.6945V36.044H44.2825V36.704H37.8805V34.482H43.1165V33.613H37.8475ZM37.8475 30.742C37.8475 31.325 38.4305 31.71 39.3545 31.71C40.2565 31.71 40.8505 31.325 40.8505 30.742C40.8505 30.159 40.2565 29.796 39.3545 29.796C38.4305 29.796 37.8475 30.159 37.8475 30.742ZM51.5599 27.53H52.4179V28.069C52.4179 29.422 54.1889 30.61 55.8939 30.874L55.5529 31.534C54.0789 31.281 52.6049 30.445 51.9999 29.257C51.3839 30.456 49.9099 31.281 48.4249 31.534L48.0839 30.874C49.8109 30.61 51.5599 29.455 51.5599 28.069V27.53ZM47.6329 33.305V32.601H56.3339V33.305H52.3739V36.814H51.5489V33.305H47.6329ZM61.2023 33.118H62.0053V33.657C62.0053 34.504 62.4673 35.417 63.3693 35.945C64.2933 35.373 64.7663 34.383 64.7663 33.657V33.118H65.5913V33.657C65.5913 34.636 66.3063 35.637 67.5273 36.055L67.1093 36.671C66.1523 36.33 65.4813 35.659 65.1623 34.845C64.8653 35.626 64.2823 36.374 63.3913 36.759C62.4673 36.396 61.8733 35.692 61.5873 34.889C61.2463 35.659 60.5863 36.33 59.6733 36.671L59.2553 36.055C60.4653 35.604 61.2023 34.57 61.2023 33.657V33.118ZM59.0023 29.994C59.0023 28.674 60.0583 27.75 61.4993 27.75C62.9513 27.75 64.0073 28.674 64.0073 29.994C64.0073 31.314 62.9513 32.227 61.4993 32.227C60.0583 32.227 59.0023 31.314 59.0023 29.994ZM59.8163 29.994C59.8163 30.907 60.5313 31.534 61.4993 31.534C62.4893 31.534 63.1933 30.907 63.1933 29.994C63.1933 29.092 62.4893 28.454 61.4993 28.454C60.5313 28.454 59.8163 29.092 59.8163 29.994ZM65.8113 32.7V27.189H66.6583V32.7H65.8113ZM70.4705 27.926C71.7795 27.926 72.7365 29.059 72.8575 30.874H74.9915V27.167H75.8165V36.825H74.9915V31.556H72.8575C72.7695 33.437 71.8015 34.625 70.4705 34.625C69.0735 34.625 68.0835 33.316 68.0835 31.27C68.0835 29.224 69.0735 27.926 70.4705 27.926ZM68.8645 31.27C68.8645 32.854 69.5245 33.888 70.4705 33.888C71.4055 33.888 72.0545 32.854 72.0545 31.27C72.0545 29.697 71.4055 28.674 70.4705 28.674C69.5245 28.674 68.8645 29.697 68.8645 31.27ZM77.0108 34.878H79.1668V32.26C78.3528 31.831 77.8688 31.138 77.8688 30.28C77.8688 28.773 79.3208 27.805 81.3558 27.805C83.4018 27.805 84.8538 28.773 84.8538 30.28C84.8538 31.138 84.3698 31.82 83.5668 32.249V34.878H85.7338V35.582H77.0108V34.878ZM78.6718 30.28C78.6718 31.358 79.8048 32.073 81.3558 32.073C82.9178 32.073 84.0288 31.358 84.0288 30.28C84.0288 29.191 82.9178 28.465 81.3558 28.465C79.8048 28.465 78.6718 29.191 78.6718 30.28ZM79.9918 34.878H82.7308V32.568C82.3128 32.678 81.8508 32.733 81.3558 32.733C80.8608 32.733 80.3988 32.678 79.9918 32.568V34.878Z" fill="white"/>
<path d="M53.6698 53.599C52.8777 54.7567 51.1709 54.7607 50.3736 53.6066L46.5 48L57.5 48L53.6698 53.599Z" fill="black" fill-opacity="0.8"/>
</svg>
