<svg width="16" height="16" viewBox="0 0 16 16" fill="none" xmlns="http://www.w3.org/2000/svg">
<g id="icn/16px/visit">
<path id="Vector" d="M5.1875 14C4.58333 14 4.06771 13.795 3.64062 13.385C3.21354 12.975 3 12.48 3 11.9V4.1C3 3.52 3.21354 3.025 3.64062 2.615C4.06771 2.205 4.58333 2 5.1875 2H11.75C12.0938 2 12.388 2.1175 12.6328 2.3525C12.8776 2.5875 13 2.87 13 3.2V10.715C13 10.795 12.9661 10.8675 12.8984 10.9325C12.8307 10.9975 12.7083 11.07 12.5312 11.15C12.3854 11.22 12.2708 11.32 12.1875 11.45C12.1042 11.58 12.0625 11.73 12.0625 11.9C12.0625 12.07 12.1042 12.2225 12.1875 12.3575C12.2708 12.4925 12.3854 12.59 12.5312 12.65C12.6771 12.71 12.7917 12.7925 12.875 12.8975C12.9583 13.0025 13 13.115 13 13.235V13.385C13 13.555 12.9401 13.7 12.8203 13.82C12.7005 13.94 12.5521 14 12.375 14H5.1875ZM6.125 9.8C6.30208 9.8 6.45052 9.7425 6.57031 9.6275C6.6901 9.5125 6.75 9.37 6.75 9.2V3.8C6.75 3.63 6.6901 3.4875 6.57031 3.3725C6.45052 3.2575 6.30208 3.2 6.125 3.2C5.94792 3.2 5.79948 3.2575 5.67969 3.3725C5.5599 3.4875 5.5 3.63 5.5 3.8V9.2C5.5 9.37 5.5599 9.5125 5.67969 9.6275C5.79948 9.7425 5.94792 9.8 6.125 9.8ZM5.1875 12.8H11.0156C10.9531 12.66 10.9036 12.5175 10.8672 12.3725C10.8307 12.2275 10.8125 12.07 10.8125 11.9C10.8125 11.74 10.8281 11.585 10.8594 11.435C10.8906 11.285 10.9427 11.14 11.0156 11H5.1875C4.91667 11 4.69271 11.0875 4.51562 11.2625C4.33854 11.4375 4.25 11.65 4.25 11.9C4.25 12.16 4.33854 12.375 4.51562 12.545C4.69271 12.715 4.91667 12.8 5.1875 12.8Z" fill="#99ADC9"/>
</g>
</svg>
